if (_typeface_js && _typeface_js.loadFace) _typeface_js.loadFace({"glyphs":{"S":{"x_min":0,"x_max":0,"ha":681,"o":"m 61 76 l 75 231 q 110 200 87 219 q 201 148 133 180 q 334 116 269 116 q 428 150 391 116 q 465 231 465 184 q 424 311 465 275 q 325 377 383 347 q 210 443 268 408 q 111 537 152 479 q 70 670 70 595 q 148 865 70 786 q 352 944 226 944 q 611 875 500 944 l 576 736 q 547 757 566 744 q 468 791 527 769 q 348 812 409 812 q 271 782 306 812 q 236 707 236 752 q 277 627 236 663 q 377 561 318 591 q 494 496 436 531 q 593 401 552 461 q 634 262 634 341 q 554 61 634 141 q 344 -18 475 -18 q 193 5 263 -18 q 91 52 122 29 l 61 76 "},"/":{"x_min":0,"x_max":0,"ha":418,"o":"m 397 912 l 100 -338 l -52 -338 l 240 912 l 397 912 "},"y":{"x_min":0,"x_max":0,"ha":713,"o":"m 712 720 l 369 -122 q 94 -337 281 -337 q -5 -318 44 -337 l -29 -151 q 73 -175 27 -175 q 181 -134 136 -175 q 261 4 226 -94 l 68 563 l 0 693 l 191 718 l 336 273 l 351 180 l 375 273 l 530 694 l 712 720 "},"≈":{"x_min":0,"x_max":0,"ha":929},"Ž":{"x_min":0,"x_max":0,"ha":800,"o":"m 33 0 l 26 48 l 450 713 l 506 786 l 47 786 l 84 927 l 754 927 l 761 879 l 340 213 l 283 140 l 776 140 l 776 0 l 33 0 m 475 988 l 333 988 l 175 1173 l 283 1215 l 405 1086 l 525 1215 l 633 1173 l 475 988 "},"Á":{"x_min":0,"x_max":0,"ha":822,"o":"m -13 0 l 343 916 l 461 945 l 744 172 l 822 0 l 620 0 l 541 215 l 234 215 l 152 0 l -13 0 m 379 626 l 279 358 l 501 358 l 405 627 l 393 682 l 379 626 m 454 1201 l 661 1201 l 404 973 l 294 1012 l 454 1201 "},"g":{"x_min":0,"x_max":0,"ha":717,"o":"m 337 168 q 276 175 301 168 l 251 181 q 222 127 222 152 q 270 92 222 100 q 388 84 319 84 q 525 76 456 84 q 643 25 594 68 q 691 -95 691 -16 q 584 -274 691 -211 q 334 -337 477 -337 q 181 -314 247 -337 q 86 -263 115 -291 q 44 -211 56 -234 l 30 -188 l 130 -97 q 141 -116 133 -104 q 173 -154 150 -129 q 243 -197 197 -180 q 350 -213 290 -213 q 475 -192 422 -213 q 529 -125 529 -170 q 495 -79 529 -94 q 412 -64 462 -65 q 303 -60 362 -63 q 194 -49 244 -56 q 111 -11 144 -41 q 77 72 77 19 q 163 225 77 138 q 82 315 115 256 q 50 437 50 373 q 135 641 50 559 q 352 722 220 722 q 434 708 391 722 q 488 683 476 694 l 513 701 l 716 701 l 687 594 l 590 594 q 637 448 637 536 q 551 247 637 326 q 337 168 465 168 m 261 556 q 226 444 226 512 q 261 332 226 376 q 345 288 297 288 q 427 332 394 288 q 461 444 461 376 q 427 557 461 513 q 345 601 394 601 q 261 556 297 601 "},"²":{"x_min":0,"x_max":0,"ha":493,"o":"m 438 397 l 69 397 l 58 462 q 127 532 81 488 q 217 643 172 576 q 262 757 262 711 q 212 816 262 816 q 113 775 166 816 l 56 875 q 237 941 130 941 q 367 899 313 941 q 420 776 420 857 q 255 512 420 673 l 450 512 l 438 397 "},"–":{"x_min":0,"x_max":0,"ha":642,"o":"m 50 415 l 609 415 l 570 270 l 50 270 l 50 415 "},"ë":{"x_min":0,"x_max":0,"ha":693,"o":"m 380 722 q 644 358 634 722 l 611 325 l 226 325 q 276 179 231 236 q 400 123 320 123 q 512 147 454 123 q 602 197 570 172 l 633 222 l 658 80 q 622 52 645 69 q 522 9 598 36 q 366 -18 447 -18 q 134 86 219 -18 q 50 333 50 190 q 133 610 50 498 q 380 722 216 722 m 363 604 q 233 447 261 604 l 465 447 q 437 556 461 509 q 363 604 413 604 m 296 945 q 319 884 319 919 q 296 825 319 850 q 241 800 273 800 q 186 825 209 800 q 163 884 163 850 q 186 945 163 919 q 241 970 209 970 q 296 945 273 970 m 552 945 q 575 884 575 919 q 552 825 575 850 q 497 800 529 800 q 442 825 465 800 q 419 884 419 850 q 442 945 419 920 q 497 970 465 970 q 552 945 529 970 "},"ƒ":{"x_min":0,"x_max":0,"ha":685,"o":"m 632 701 l 569 583 l 434 583 l 351 -16 q 242 -248 331 -161 q 22 -337 152 -336 l -19 -219 q 118 -166 65 -219 q 184 -15 172 -113 l 262 583 l 162 583 l 186 701 l 276 701 l 286 782 q 385 982 306 918 q 563 1047 463 1047 q 722 1002 651 1047 l 658 872 q 555 905 625 905 q 498 878 525 905 q 463 802 472 851 l 448 701 l 632 701 "},"Î":{"x_min":0,"x_max":0,"ha":457,"o":"m 316 927 l 316 119 l 331 0 l 136 0 l 136 784 l 116 927 l 316 927 m 158 1215 l 300 1215 l 458 1030 l 350 988 l 227 1118 l 108 988 l 0 1030 l 158 1215 "},"e":{"x_min":0,"x_max":0,"ha":693,"o":"m 380 722 q 644 358 634 722 l 611 325 l 226 325 q 276 179 231 236 q 400 123 320 123 q 512 147 454 123 q 602 197 570 172 l 633 222 l 658 80 q 622 52 645 69 q 522 9 598 36 q 366 -18 447 -18 q 134 86 219 -18 q 50 333 50 190 q 133 610 50 498 q 380 722 216 722 m 363 604 q 233 447 261 604 l 465 447 q 437 556 461 509 q 363 604 413 604 "},"Ã":{"x_min":0,"x_max":0,"ha":822,"o":"m -13 0 l 343 916 l 461 945 l 744 172 l 822 0 l 620 0 l 541 215 l 234 215 l 152 0 l -13 0 m 379 626 l 279 358 l 501 358 l 405 627 l 393 682 l 379 626 m 577 1154 l 652 1100 q 645 1084 651 1094 q 624 1052 640 1073 q 575 1016 608 1030 q 498 1001 541 1001 q 397 1025 450 1001 q 330 1048 344 1048 q 279 1036 302 1048 q 247 1013 256 1025 l 238 1001 l 166 1052 q 175 1070 169 1059 q 200 1102 181 1080 q 250 1139 218 1125 q 325 1154 283 1154 q 417 1129 365 1154 q 487 1105 469 1105 q 577 1154 554 1105 "},"J":{"x_min":0,"x_max":0,"ha":450,"o":"m 320 927 l 320 66 q 245 -177 320 -79 q 20 -276 169 -276 q -81 -263 -19 -276 l -72 -108 q 20 -129 -34 -129 q 107 -73 75 -129 q 140 66 140 -18 l 140 784 l 120 927 l 320 927 "},"»":{"x_min":0,"x_max":0,"ha":892,"o":"m 633 341 l 420 556 l 483 682 l 857 343 l 483 4 l 420 129 l 633 341 m 261 341 l 48 556 l 111 682 l 484 343 l 111 4 l 48 129 l 261 341 "},"∆":{"x_min":0,"x_max":0,"ha":929},"©":{"x_min":0,"x_max":0,"ha":1111,"o":"m 750 657 l 698 556 q 565 616 633 616 q 482 573 515 616 q 450 465 450 530 q 484 354 450 401 q 572 308 518 308 q 645 325 605 308 q 708 358 686 341 l 732 376 l 745 266 q 721 246 737 258 q 651 213 705 234 q 537 193 597 193 q 369 268 430 191 q 308 450 308 344 q 376 647 308 568 q 568 727 444 727 q 657 709 612 727 q 726 675 702 691 l 750 657 m 1041 472 q 905 114 1041 247 q 533 -18 769 -18 q 201 115 333 -18 q 69 447 69 248 q 209 798 69 669 q 590 927 350 927 q 914 798 787 927 q 1041 472 1041 669 m 913 454 q 815 720 913 619 q 561 822 716 822 q 304 725 408 822 q 200 463 200 627 q 298 190 200 291 q 563 90 397 90 q 811 190 709 90 q 913 454 913 291 "},"˘":{"x_min":0,"x_max":0,"ha":572,"o":"m 217 920 q 276 883 248 883 q 333 916 304 883 q 377 983 362 950 l 393 1016 l 511 976 q 497 940 506 962 q 460 870 487 918 q 384 790 433 822 q 276 758 336 758 q 167 792 216 758 q 93 867 118 826 q 55 941 68 908 l 41 976 l 159 1016 q 175 979 165 1001 q 217 920 186 957 "},"≥":{"x_min":0,"x_max":0,"ha":313},"ò":{"x_min":0,"x_max":0,"ha":782,"o":"m 734 366 q 635 93 734 204 q 368 -18 536 -18 q 133 90 219 -18 q 47 341 47 198 q 145 613 47 504 q 415 722 244 722 q 647 632 559 722 q 734 366 734 543 m 273 529 q 230 352 230 459 q 273 175 230 245 q 390 105 316 105 q 506 175 463 105 q 550 352 550 245 q 506 529 550 459 q 390 598 463 598 q 273 529 316 598 m 145 1005 l 352 1005 l 512 816 l 402 777 l 145 1005 "},"ﬄ":{"x_min":0,"x_max":0,"ha":1333,"o":"m 761 701 l 936 701 l 890 572 l 761 572 l 761 158 l 776 0 l 588 0 l 588 572 l 291 572 l 291 158 l 306 0 l 119 0 l 119 572 l 34 572 l 34 701 l 119 701 l 119 770 q 150 900 119 843 q 229 992 181 958 q 329 1043 277 1026 q 429 1061 381 1061 q 688 983 594 1061 q 898 1061 783 1061 q 1051 1032 944 1061 q 1222 993 1158 1004 l 1222 119 l 1237 0 l 1050 0 l 1050 879 q 913 918 975 918 q 804 880 847 918 q 761 768 761 843 l 761 701 m 291 768 l 291 701 l 588 701 l 588 770 q 604 865 588 822 q 444 918 522 918 q 334 880 377 918 q 291 768 291 843 "},"^":{"x_min":0,"x_max":0,"ha":881,"o":"m 808 444 l 651 444 l 437 834 l 222 444 l 69 444 l 379 983 l 498 983 l 808 444 "},"«":{"x_min":0,"x_max":0,"ha":892,"o":"m 470 556 l 258 341 l 470 129 l 408 4 l 34 343 l 408 682 l 470 556 m 843 556 l 630 341 l 843 129 l 780 4 l 406 343 l 780 682 l 843 556 "},"D":{"x_min":0,"x_max":0,"ha":949,"o":"m 115 927 l 490 927 q 642 900 570 927 q 772 819 713 873 q 865 675 830 765 q 900 469 900 584 q 775 132 900 265 q 448 0 651 0 l 134 0 l 134 784 l 115 927 m 315 793 l 315 134 l 465 134 q 640 227 570 134 q 709 461 709 320 q 640 697 709 602 q 465 793 570 793 l 315 793 "},"ł":{"x_min":0,"x_max":0,"ha":394,"o":"m 283 1055 l 283 547 l 361 591 l 380 461 l 283 404 l 283 119 l 298 0 l 111 0 l 111 304 l 48 268 l -4 383 l 111 448 l 111 894 l 91 1034 l 283 1055 "},"ÿ":{"x_min":0,"x_max":0,"ha":713,"o":"m 712 720 l 369 -122 q 94 -337 281 -337 q -5 -318 44 -337 l -29 -151 q 73 -175 27 -175 q 181 -134 136 -175 q 261 4 226 -94 l 68 563 l 0 693 l 191 718 l 336 273 l 351 180 l 375 273 l 530 694 l 712 720 m 290 945 q 313 884 313 919 q 290 825 313 850 q 236 800 268 800 q 181 825 204 800 q 158 884 158 850 q 181 945 158 919 q 236 970 204 970 q 290 945 268 970 m 546 945 q 569 884 569 919 q 546 825 569 850 q 491 800 523 800 q 436 825 459 800 q 413 884 413 850 q 436 945 413 920 q 491 970 459 970 q 546 945 523 970 "},"Ł":{"x_min":0,"x_max":0,"ha":668,"o":"m 134 0 l 134 308 l 65 268 l 6 381 l 134 454 l 134 784 l 115 927 l 315 927 l 315 556 l 491 658 l 511 527 l 315 413 l 315 137 l 669 137 l 634 0 l 134 0 "},"í":{"x_min":0,"x_max":0,"ha":394,"o":"m 283 722 l 283 119 l 298 0 l 111 0 l 111 561 l 91 701 l 283 722 m 245 991 l 452 991 l 195 763 l 86 802 l 245 991 "},"ˆ":{"x_min":0,"x_max":0,"ha":572,"o":"m 213 1005 l 355 1005 l 513 820 l 405 779 l 283 908 l 163 779 l 55 820 l 213 1005 "},"w":{"x_min":0,"x_max":0,"ha":1171,"o":"m 1170 720 l 868 -18 l 726 8 l 600 376 l 581 445 l 566 375 l 401 -18 l 259 8 l 68 566 l 0 695 l 190 720 l 331 272 l 347 180 l 372 272 l 508 629 l 480 695 l 657 720 l 798 272 l 813 180 l 837 272 l 990 694 l 1170 720 "},"$":{"x_min":0,"x_max":0,"ha":681,"o":"m 390 1050 l 390 943 q 611 868 504 933 l 576 713 q 390 801 493 784 l 390 555 q 461 509 438 525 q 524 461 483 494 q 585 401 565 429 q 622 333 605 373 q 638 248 638 293 q 572 67 638 138 q 390 -15 505 -4 l 390 -130 l 305 -130 l 305 -16 q 175 12 236 -11 q 87 55 113 36 l 61 76 l 75 238 q 106 208 86 226 q 186 156 126 190 q 305 118 247 123 l 305 373 q 238 418 265 400 q 177 466 212 436 q 122 525 143 497 q 88 593 102 554 q 73 673 73 632 q 136 852 73 777 q 305 940 198 926 l 305 1050 l 390 1050 m 465 213 q 390 316 465 262 l 390 123 q 465 213 465 144 m 238 713 q 305 612 238 662 l 305 798 q 238 713 238 777 "},"∫":{"x_min":0,"x_max":0,"ha":708,"o":"m 111 0 l 111 133 l 281 133 l 281 640 l 145 598 l 95 722 l 454 840 l 454 133 l 625 133 l 605 0 l 111 0 "},"\\":{"x_min":0,"x_max":0,"ha":508,"o":"m 363 -338 l -4 912 l 156 912 l 513 -338 l 363 -338 "},"Ì":{"x_min":0,"x_max":0,"ha":457,"o":"m 316 927 l 316 119 l 331 0 l 136 0 l 136 784 l 116 927 l 316 927 m -15 1215 l 191 1215 l 351 1026 l 241 987 l -15 1215 "},"µ":{"x_min":0,"x_max":0,"ha":721},"Ç":{"x_min":0,"x_max":0,"ha":860,"o":"m 826 829 l 752 695 q 509 807 643 807 q 313 703 393 807 q 234 458 234 600 q 319 213 234 302 q 523 123 404 123 q 670 157 595 123 q 804 254 744 191 l 837 111 q 679 16 772 51 q 497 -18 587 -18 q 179 104 312 -18 q 47 444 47 226 q 179 803 47 662 q 508 944 311 944 q 826 829 697 944 m 405 -68 l 422 4 l 506 4 q 567 -44 523 -16 q 641 -101 611 -72 q 670 -168 670 -130 q 616 -286 670 -245 q 483 -326 562 -326 q 320 -272 398 -326 l 362 -176 q 480 -219 405 -219 q 531 -181 531 -219 q 474 -122 531 -159 q 405 -68 416 -86 "},"’":{"x_min":0,"x_max":0,"ha":389,"o":"m 126 579 l 70 647 q 152 782 152 720 q 143 822 152 809 q 112 845 134 836 l 112 855 q 139 919 112 888 q 205 950 166 950 q 275 922 247 950 q 304 843 304 894 q 259 713 304 786 q 126 579 215 640 "},"-":{"x_min":0,"x_max":0,"ha":433,"o":"m 22 415 l 426 415 l 387 270 l 22 270 l 22 415 "},"Q":{"x_min":0,"x_max":0,"ha":958,"o":"m 412 -88 l 412 -13 q 140 134 238 5 q 43 452 43 263 q 170 799 43 659 q 487 938 298 938 q 806 811 695 938 q 916 469 916 683 q 816 156 916 288 q 561 -8 716 23 l 855 -120 l 790 -262 l 412 -88 m 303 712 q 234 461 234 612 q 303 209 234 309 q 480 109 372 109 q 657 209 588 109 q 725 461 725 309 q 657 712 725 612 q 480 812 588 812 q 303 712 372 812 "},"M":{"x_min":0,"x_max":0,"ha":1242,"o":"m 618 86 l 327 484 l 281 575 l 281 119 l 297 0 l 122 0 l 122 784 l 102 927 l 245 927 l 633 376 l 987 927 l 1108 927 l 1108 119 l 1123 0 l 927 0 l 927 573 l 887 484 l 618 86 "},"C":{"x_min":0,"x_max":0,"ha":860,"o":"m 826 829 l 752 695 q 509 807 643 807 q 313 703 393 807 q 234 458 234 600 q 319 213 234 302 q 523 123 404 123 q 670 157 595 123 q 804 254 744 191 l 837 111 q 679 16 772 51 q 497 -18 587 -18 q 179 104 312 -18 q 47 444 47 226 q 179 803 47 662 q 508 944 311 944 q 826 829 697 944 "},"œ":{"x_min":0,"x_max":0,"ha":1188,"o":"m 882 722 q 1145 358 1136 722 l 1112 325 l 727 325 q 774 181 733 234 q 894 127 815 127 q 1009 152 951 127 q 1097 202 1068 177 l 1127 227 l 1152 81 q 1118 54 1141 70 q 1020 9 1095 37 q 861 -18 944 -18 q 630 87 715 -18 q 368 -18 529 -18 q 215 18 280 -18 q 119 100 150 54 q 70 205 88 145 q 50 293 52 265 q 47 340 47 320 q 147 616 47 509 q 415 722 247 722 q 650 627 565 722 q 882 722 737 722 m 273 529 q 230 352 230 459 q 273 175 230 245 q 390 105 316 105 q 508 175 463 105 q 552 352 552 245 q 508 529 552 459 q 390 598 463 598 q 273 529 316 598 m 865 604 q 734 447 762 604 l 966 447 q 938 556 962 509 q 865 604 915 604 "},"!":{"x_min":0,"x_max":0,"ha":381,"o":"m 297 1063 l 258 301 l 130 280 l 101 907 l 81 1036 l 297 1063 m 301 84 q 272 11 301 41 q 197 -18 243 -18 q 122 11 151 -18 q 93 84 93 41 q 122 157 93 126 q 197 188 152 188 q 271 157 241 188 q 301 84 301 126 "},"ç":{"x_min":0,"x_max":0,"ha":679,"o":"m 648 629 l 569 504 q 398 590 500 590 q 270 521 313 590 q 226 351 226 452 q 269 190 226 256 q 393 123 312 123 q 504 151 447 123 q 591 206 561 179 l 620 234 l 645 90 q 624 72 638 83 q 572 37 609 61 q 479 -2 536 13 q 359 -18 422 -18 q 188 34 261 -18 q 83 166 116 87 q 50 338 50 245 q 141 611 50 500 q 394 722 233 722 q 534 698 470 722 q 622 652 597 675 l 648 629 m 293 -68 l 309 4 l 394 4 q 454 -44 411 -16 q 528 -101 498 -72 q 558 -168 558 -130 q 504 -286 558 -245 q 370 -326 450 -326 q 208 -272 286 -326 l 250 -176 q 368 -219 293 -219 q 419 -181 419 -219 q 361 -122 419 -159 q 293 -68 304 -86 "},"È":{"x_min":0,"x_max":0,"ha":708,"o":"m 134 0 l 134 784 l 115 927 l 647 927 l 647 790 l 315 790 l 315 544 l 608 544 l 573 406 l 315 406 l 315 137 l 665 137 l 630 0 l 134 0 m 143 1215 l 350 1215 l 509 1026 l 400 987 l 143 1215 "},"ﬁ":{"x_min":0,"x_max":0,"ha":864,"o":"m 752 722 l 752 119 l 768 0 l 580 0 l 580 523 l 575 572 l 291 572 l 291 158 l 306 0 l 119 0 l 119 572 l 34 572 l 34 701 l 119 701 l 119 770 q 150 900 119 843 q 229 992 181 958 q 329 1043 277 1026 q 429 1061 381 1061 q 550 1047 493 1061 q 637 1016 607 1033 q 686 986 668 1000 l 702 972 l 652 827 q 561 888 620 859 q 444 918 501 918 q 334 880 377 918 q 291 768 291 843 l 291 701 l 561 701 l 752 722 "},"{":{"x_min":0,"x_max":0,"ha":432,"o":"m 16 365 l 16 465 q 79 487 55 465 q 106 527 102 509 q 111 562 111 545 l 111 827 q 188 992 111 936 q 390 1048 266 1048 l 390 934 q 277 823 277 934 l 277 563 q 258 482 277 519 q 219 430 238 445 l 200 415 q 221 398 208 409 q 256 349 234 387 q 277 266 277 311 l 277 -111 q 390 -222 277 -222 l 390 -336 q 188 -279 266 -336 q 111 -115 111 -223 l 111 268 q 106 302 111 284 q 79 343 102 320 q 16 365 55 365 "},"X":{"x_min":0,"x_max":0,"ha":745,"o":"m 0 0 l 283 463 l 93 807 l 4 927 l 225 927 l 366 666 l 387 618 l 405 666 l 555 927 l 738 927 l 469 486 l 744 0 l 541 0 l 390 281 l 368 330 l 348 281 l 191 0 l 0 0 "},"ô":{"x_min":0,"x_max":0,"ha":782,"o":"m 734 366 q 635 93 734 204 q 368 -18 536 -18 q 133 90 219 -18 q 47 341 47 198 q 145 613 47 504 q 415 722 244 722 q 647 632 559 722 q 734 366 734 543 m 273 529 q 230 352 230 459 q 273 175 230 245 q 390 105 316 105 q 506 175 463 105 q 550 352 550 245 q 506 529 550 459 q 390 598 463 598 q 273 529 316 598 m 319 1005 l 461 1005 l 619 820 l 511 779 l 388 908 l 269 779 l 161 820 l 319 1005 "},"¼":{"x_min":0,"x_max":0,"ha":1039,"o":"m 857 776 l 405 123 l 263 123 l 743 819 l 857 776 m 58 397 l 58 495 l 162 495 l 162 779 l 86 755 l 48 850 l 313 934 l 313 495 l 419 495 l 405 397 l 58 397 m 543 109 l 800 479 l 923 443 l 923 151 l 1020 151 l 994 41 l 923 41 l 923 5 l 934 -81 l 775 -81 l 775 41 l 556 41 l 543 109 m 776 151 l 773 272 l 777 323 l 752 272 l 686 173 l 658 148 l 687 151 l 776 151 "},"#":{"x_min":0,"x_max":0,"ha":992,"o":"m 897 234 l 701 234 l 675 0 l 511 0 l 538 234 l 370 234 l 344 0 l 180 0 l 208 234 l 19 234 l 19 365 l 220 365 l 245 581 l 58 581 l 58 712 l 258 712 l 280 913 l 443 913 l 419 712 l 587 712 l 609 913 l 773 913 l 750 712 l 950 712 l 934 581 l 738 581 l 713 365 l 912 365 l 897 234 m 551 365 l 576 581 l 408 581 l 383 365 l 551 365 "},"Ê":{"x_min":0,"x_max":0,"ha":708,"o":"m 134 0 l 134 784 l 115 927 l 647 927 l 647 790 l 315 790 l 315 544 l 608 544 l 573 406 l 315 406 l 315 137 l 665 137 l 630 0 l 134 0 m 316 1215 l 458 1215 l 616 1030 l 508 988 l 386 1118 l 266 988 l 158 1030 l 316 1215 "},")":{"x_min":0,"x_max":0,"ha":472,"o":"m 204 79 q 234 329 234 201 q 204 571 234 456 q 131 756 173 686 q 55 866 88 826 q 5 915 22 907 l 131 961 q 322 707 244 891 q 401 329 401 523 q 322 -72 401 131 q 131 -344 243 -276 l 5 -298 q 55 -243 20 -291 q 131 -118 90 -195 q 204 79 173 -41 "},"Å":{"x_min":0,"x_max":0,"ha":822,"o":"m -13 0 l 343 916 l 461 945 l 744 172 l 822 0 l 620 0 l 541 215 l 234 215 l 152 0 l -13 0 m 379 626 l 279 358 l 501 358 l 405 627 l 393 682 l 379 626 m 493 1184 q 531 1098 531 1148 q 493 1012 531 1048 q 405 976 455 976 q 318 1012 355 976 q 281 1098 281 1048 q 318 1184 281 1148 q 405 1220 355 1220 q 493 1184 455 1220 m 466 1100 q 448 1141 466 1123 q 406 1159 430 1159 q 364 1141 381 1159 q 347 1100 347 1123 q 364 1055 347 1076 q 406 1034 381 1034 q 450 1054 434 1034 q 466 1100 466 1075 "},"Δ":{"x_min":0,"x_max":0,"ha":929},"ø":{"x_min":0,"x_max":0,"ha":782,"o":"m 573 913 l 523 707 q 678 592 622 677 q 734 366 734 506 q 635 93 734 204 q 368 -18 536 -18 q 359 -17 365 -18 q 351 -16 354 -16 l 300 -231 l 198 -231 l 252 0 q 154 61 195 19 q 93 143 112 102 q 61 231 73 183 q 48 302 50 280 q 47 340 47 325 q 147 616 47 509 q 415 722 247 722 l 422 722 l 468 913 l 573 913 m 550 352 q 487 554 550 484 l 380 105 l 390 105 q 506 175 463 105 q 550 352 550 245 m 230 352 q 288 154 230 223 l 393 598 l 390 598 q 273 529 316 598 q 230 352 230 459 "},"â":{"x_min":0,"x_max":0,"ha":726,"o":"m 154 494 l 83 616 q 104 634 90 623 q 156 668 119 645 q 251 707 193 691 q 373 722 309 722 q 541 676 472 722 q 611 530 611 630 l 611 170 q 629 91 611 133 q 663 27 647 50 l 682 4 l 506 -15 q 459 70 472 23 q 250 -18 370 -18 q 104 36 162 -18 q 47 163 47 91 q 152 352 47 276 q 438 433 258 427 l 438 459 q 344 598 438 598 q 269 582 306 598 q 207 546 231 566 q 169 511 183 526 l 154 494 m 306 109 q 377 127 338 109 q 438 169 415 145 l 438 311 q 225 186 225 293 q 246 131 225 154 q 306 109 268 109 m 287 1005 l 429 1005 l 587 820 l 479 779 l 356 908 l 237 779 l 129 820 l 287 1005 "},"}":{"x_min":0,"x_max":0,"ha":432,"o":"m 415 465 l 415 365 q 352 343 376 365 q 325 302 329 320 q 320 268 320 284 l 320 -115 q 243 -279 320 -223 q 41 -336 165 -336 l 41 -222 q 154 -111 154 -222 l 154 266 q 173 347 154 311 q 212 400 193 384 l 231 415 q 210 431 223 420 q 175 481 197 443 q 154 563 154 519 l 154 823 q 41 934 154 934 l 41 1048 q 243 992 165 1048 q 320 827 320 936 l 320 562 q 325 527 320 545 q 352 487 329 509 q 415 465 376 465 "},"‰":{"x_min":0,"x_max":0,"ha":1714,"o":"m 468 863 q 537 704 537 795 q 468 545 537 612 q 306 477 398 477 q 148 545 216 477 q 80 704 80 612 q 148 863 80 795 q 306 930 216 930 q 468 863 398 930 m 415 705 q 382 778 415 747 q 308 809 350 809 q 234 779 265 809 q 202 705 202 748 q 233 629 202 663 q 308 594 263 594 q 386 628 356 594 q 415 705 415 662 m 982 898 l 359 0 l 197 0 l 850 955 l 982 898 m 1044 367 q 1113 208 1113 300 q 1044 49 1113 116 q 883 -18 975 -18 q 725 49 793 -18 q 657 208 657 116 q 725 367 657 300 q 883 434 793 434 q 1044 367 975 434 m 991 209 q 959 282 991 251 q 884 313 926 313 q 810 283 841 313 q 779 209 779 252 q 809 133 779 168 q 884 98 840 98 q 962 132 933 98 q 991 209 991 166 m 1564 367 q 1633 208 1633 300 q 1564 49 1633 116 q 1402 -18 1494 -18 q 1244 49 1312 -18 q 1176 208 1176 116 q 1244 367 1176 300 q 1402 434 1312 434 q 1564 367 1494 434 m 1511 209 q 1478 282 1511 251 q 1404 313 1445 313 q 1329 283 1361 313 q 1298 209 1298 252 q 1329 133 1298 168 q 1404 98 1359 98 q 1482 132 1452 98 q 1511 209 1511 166 "},"Ä":{"x_min":0,"x_max":0,"ha":822,"o":"m -13 0 l 343 916 l 461 945 l 744 172 l 822 0 l 620 0 l 541 215 l 234 215 l 152 0 l -13 0 m 379 626 l 279 358 l 501 358 l 405 627 l 393 682 l 379 626 m 332 1154 q 355 1094 355 1129 q 332 1034 355 1059 q 277 1009 309 1009 q 222 1034 245 1009 q 200 1094 200 1059 q 222 1154 200 1129 q 277 1180 245 1180 q 332 1154 309 1180 m 588 1154 q 611 1094 611 1129 q 588 1034 611 1059 q 533 1009 565 1009 q 478 1034 501 1009 q 455 1094 455 1059 q 478 1155 455 1130 q 533 1180 501 1180 q 588 1154 565 1180 "},"¸":{"x_min":0,"x_max":0,"ha":572,"o":"m 173 -68 l 190 4 l 275 4 q 335 -44 291 -16 q 409 -101 379 -72 q 438 -168 438 -130 q 384 -286 438 -245 q 251 -326 330 -326 q 88 -272 166 -326 l 130 -176 q 248 -219 173 -219 q 300 -181 300 -219 q 242 -122 300 -159 q 173 -68 184 -86 "},"a":{"x_min":0,"x_max":0,"ha":726,"o":"m 154 494 l 83 616 q 104 634 90 623 q 156 668 119 645 q 251 707 193 691 q 373 722 309 722 q 541 676 472 722 q 611 530 611 630 l 611 170 q 629 91 611 133 q 663 27 647 50 l 682 4 l 506 -15 q 459 70 472 23 q 250 -18 370 -18 q 104 36 162 -18 q 47 163 47 91 q 152 352 47 276 q 438 433 258 427 l 438 459 q 344 598 438 598 q 269 582 306 598 q 207 546 231 566 q 169 511 183 526 l 154 494 m 306 109 q 377 127 338 109 q 438 169 415 145 l 438 311 q 225 186 225 293 q 246 131 225 154 q 306 109 268 109 "},"—":{"x_min":0,"x_max":0,"ha":957,"o":"m 50 415 l 922 415 l 883 270 l 50 270 l 50 415 "},"=":{"x_min":0,"x_max":0,"ha":681,"o":"m 59 279 l 612 279 l 577 148 l 59 148 l 59 279 m 59 536 l 626 536 l 591 405 l 59 405 l 59 536 "},"N":{"x_min":0,"x_max":0,"ha":1031,"o":"m 909 927 l 909 119 l 919 0 l 804 0 l 336 526 l 281 613 l 281 119 l 297 0 l 122 0 l 122 784 l 102 927 l 241 927 l 697 391 l 750 305 l 750 784 l 730 927 l 909 927 "},"˚":{"x_min":0,"x_max":0,"ha":736,"o":"m 449 988 q 487 902 487 952 q 449 816 487 852 q 361 780 411 780 q 274 816 311 780 q 237 902 237 852 q 274 988 237 952 q 361 1025 311 1025 q 449 988 411 1025 m 422 904 q 404 945 422 927 q 362 963 386 963 q 320 945 337 963 q 302 904 302 927 q 320 859 302 880 q 362 838 337 838 q 406 859 390 838 q 422 904 422 879 "},"ú":{"x_min":0,"x_max":0,"ha":822,"o":"m 779 6 l 598 -18 q 554 76 563 26 q 525 50 544 65 q 443 8 505 34 q 315 -18 380 -18 q 167 28 229 -18 q 105 159 105 75 l 105 559 l 86 700 l 277 720 l 277 298 q 293 163 277 201 q 358 125 308 125 q 452 146 408 125 q 516 188 497 168 l 536 211 l 536 559 l 516 700 l 708 720 l 708 173 q 726 94 708 136 q 761 30 744 52 l 779 6 m 455 991 l 662 991 l 405 763 l 295 802 l 455 991 "},"⁄":{"x_min":0,"x_max":0,"ha":756,"o":"m 784 887 l 170 0 l -5 0 l 643 943 l 784 887 "},"2":{"x_min":0,"x_max":0,"ha":708,"o":"m 636 0 l 101 0 l 83 77 q 140 138 109 106 q 203 207 170 169 q 268 283 236 245 q 328 361 300 320 q 379 439 356 402 q 413 513 401 476 q 426 579 426 550 q 394 665 426 634 q 320 695 362 695 q 235 674 277 695 q 172 632 193 652 l 151 611 l 79 737 q 340 830 190 830 q 525 769 448 830 q 602 597 602 708 q 559 440 602 525 q 462 294 515 355 q 366 191 409 233 l 322 150 l 654 150 l 636 0 "},"ü":{"x_min":0,"x_max":0,"ha":822,"o":"m 779 6 l 598 -18 q 554 76 563 26 q 525 50 544 65 q 443 8 505 34 q 315 -18 380 -18 q 167 28 229 -18 q 105 159 105 75 l 105 559 l 86 700 l 277 720 l 277 298 q 293 163 277 201 q 358 125 308 125 q 452 146 408 125 q 516 188 497 168 l 536 211 l 536 559 l 516 700 l 708 720 l 708 173 q 726 94 708 136 q 761 30 744 52 l 779 6 m 334 945 q 356 884 356 919 q 334 825 356 850 q 279 800 311 800 q 224 825 247 800 q 201 884 201 850 q 224 945 201 919 q 279 970 247 970 q 334 945 311 970 m 589 945 q 612 884 612 919 q 589 825 612 850 q 534 800 566 800 q 479 825 502 800 q 456 884 456 850 q 479 945 456 920 q 534 970 502 970 q 589 945 566 970 "},"¯":{"x_min":0,"x_max":0,"ha":479,"o":"m 52 923 l 433 923 l 397 787 l 52 787 l 52 923 "},"Z":{"x_min":0,"x_max":0,"ha":800,"o":"m 33 0 l 26 48 l 450 713 l 506 786 l 47 786 l 84 927 l 754 927 l 761 879 l 340 213 l 283 140 l 776 140 l 776 0 l 33 0 "},"u":{"x_min":0,"x_max":0,"ha":822,"o":"m 779 6 l 598 -18 q 554 76 563 26 q 525 50 544 65 q 443 8 505 34 q 315 -18 380 -18 q 167 28 229 -18 q 105 159 105 75 l 105 559 l 86 700 l 277 720 l 277 298 q 293 163 277 201 q 358 125 308 125 q 452 146 408 125 q 516 188 497 168 l 536 211 l 536 559 l 516 700 l 708 720 l 708 173 q 726 94 708 136 q 761 30 744 52 l 779 6 "},"˜":{"x_min":0,"x_max":0,"ha":542,"o":"m 452 944 l 527 890 q 520 874 526 884 q 499 842 515 863 q 450 806 483 820 q 373 791 416 791 q 272 815 325 791 q 205 838 219 838 q 154 827 177 838 q 122 802 131 815 l 113 791 l 41 843 q 50 860 44 850 q 75 893 56 870 q 125 929 93 915 q 200 944 158 944 q 292 920 240 944 q 362 895 344 895 q 452 944 429 895 "},"Ó":{"x_min":0,"x_max":0,"ha":958,"o":"m 487 941 q 806 813 695 941 q 916 470 916 684 q 788 122 916 262 q 469 -18 659 -18 q 156 115 270 -18 q 43 454 43 248 q 170 801 43 661 q 487 941 298 941 m 302 710 q 234 462 234 612 q 302 214 234 312 q 480 116 370 116 q 657 214 590 116 q 725 462 725 312 q 657 710 725 612 q 480 808 590 808 q 302 710 370 808 m 526 1201 l 733 1201 l 476 973 l 366 1012 l 526 1201 "},"k":{"x_min":0,"x_max":0,"ha":754,"o":"m 284 1055 l 284 384 l 475 626 l 508 701 l 740 701 l 458 383 l 754 0 l 538 0 l 284 351 l 284 119 l 300 0 l 112 0 l 112 894 l 93 1034 l 284 1055 "},"ˇ":{"x_min":0,"x_max":0,"ha":572,"o":"m 355 779 l 213 779 l 55 963 l 163 1005 l 286 876 l 405 1005 l 513 963 l 355 779 "},"Ù":{"x_min":0,"x_max":0,"ha":995,"o":"m 734 356 l 734 784 l 715 927 l 894 927 l 894 372 q 785 88 894 195 q 494 -18 676 -18 q 362 0 422 -18 q 265 47 302 19 q 202 113 229 75 q 161 186 175 152 q 140 255 148 219 q 131 308 133 291 q 130 336 130 325 l 130 784 l 111 927 l 311 927 l 311 347 q 370 181 311 244 q 519 118 429 118 q 672 186 611 118 q 734 356 734 254 m 261 1215 l 468 1215 l 627 1026 l 518 987 l 261 1215 "},"Ÿ":{"x_min":0,"x_max":0,"ha":764,"o":"m 479 415 l 479 119 l 494 0 l 298 0 l 298 401 l 86 809 l 0 927 l 220 927 l 384 611 l 402 556 l 420 611 l 583 927 l 763 927 l 479 415 m 327 1154 q 350 1094 350 1129 q 327 1034 350 1059 q 272 1009 304 1009 q 217 1034 240 1009 q 194 1094 194 1059 q 217 1154 194 1129 q 272 1180 240 1180 q 327 1154 304 1180 m 582 1154 q 605 1094 605 1129 q 582 1034 605 1059 q 527 1009 559 1009 q 472 1034 495 1009 q 450 1094 450 1059 q 472 1155 450 1130 q 527 1180 495 1180 q 582 1154 559 1180 "},"€":{"x_min":0,"x_max":0,"ha":849,"o":"m 5 625 l 100 625 q 261 857 143 773 q 537 941 380 941 q 801 870 693 941 l 751 732 q 526 804 658 804 q 370 756 441 804 q 270 625 300 708 l 712 625 l 668 501 l 247 501 q 247 400 241 433 l 643 400 l 598 276 l 265 276 q 522 123 316 123 q 777 220 659 123 l 777 62 q 497 -18 651 -18 q 242 53 350 -18 q 97 276 134 125 l 5 276 l 5 400 l 84 400 q 86 501 79 456 l 5 501 l 5 625 "},"¢":{"x_min":0,"x_max":0,"ha":683,"o":"m 445 825 l 445 719 q 559 688 508 712 q 632 644 611 665 l 652 623 l 565 512 q 445 586 516 570 l 445 133 q 534 169 490 143 q 602 216 579 195 l 625 238 l 650 90 q 625 68 641 81 q 556 28 609 55 q 445 -9 502 1 l 445 -130 l 361 -130 l 361 -18 q 134 88 215 -16 q 54 338 54 193 q 135 597 54 488 q 361 719 216 705 l 361 825 l 445 825 m 230 351 q 263 206 230 268 q 361 130 297 145 l 361 584 q 263 503 297 568 q 230 351 230 438 "},"Ω":{"x_min":0,"x_max":0,"ha":511},"ß":{"x_min":0,"x_max":0,"ha":822,"o":"m 365 33 l 383 176 q 537 111 476 111 q 632 188 632 111 q 593 259 632 220 q 510 329 555 297 q 427 411 465 362 q 388 508 388 459 q 413 597 388 555 q 469 667 438 640 q 525 737 500 694 q 550 829 550 780 q 524 890 550 862 q 455 918 498 918 q 337 877 383 918 q 291 768 291 836 l 291 158 l 306 0 l 119 0 l 119 573 l 34 573 l 34 695 l 119 695 l 119 757 q 152 886 119 827 q 237 978 186 944 q 343 1029 288 1012 q 448 1047 398 1047 q 636 996 555 1047 q 718 838 718 945 q 694 747 718 791 q 641 673 670 702 q 588 611 612 644 q 565 550 565 577 q 603 465 565 509 q 686 386 641 420 q 770 302 732 352 q 808 200 808 252 q 734 46 808 111 q 536 -18 659 -18 q 449 -4 491 -18 q 386 20 406 8 l 365 33 "},"é":{"x_min":0,"x_max":0,"ha":693,"o":"m 380 722 q 644 358 634 722 l 611 325 l 226 325 q 276 179 231 236 q 400 123 320 123 q 512 147 454 123 q 602 197 570 172 l 633 222 l 658 80 q 622 52 645 69 q 522 9 598 36 q 366 -18 447 -18 q 134 86 219 -18 q 50 333 50 190 q 133 610 50 498 q 380 722 216 722 m 363 604 q 233 447 261 604 l 465 447 q 437 556 461 509 q 363 604 413 604 m 418 991 l 625 991 l 368 763 l 258 802 l 418 991 "},"s":{"x_min":0,"x_max":0,"ha":593,"o":"m 47 63 l 63 209 q 97 182 76 198 q 177 139 119 166 q 284 112 236 112 q 356 130 326 112 q 386 181 386 148 q 351 236 386 211 q 267 281 316 261 q 168 328 218 302 q 83 397 118 354 q 48 497 48 440 q 126 668 48 615 q 325 720 204 720 q 429 709 379 720 q 501 686 479 697 l 523 675 l 491 536 q 468 553 483 543 q 402 581 454 563 q 295 598 351 598 q 233 579 259 598 q 206 533 206 561 q 241 478 206 502 q 326 433 276 454 q 426 386 376 412 q 511 312 476 359 q 545 200 545 265 q 475 38 545 95 q 283 -18 404 -18 q 180 -5 229 -18 q 104 22 131 6 q 62 51 77 38 l 47 63 "},"B":{"x_min":0,"x_max":0,"ha":800,"o":"m 315 798 l 315 562 q 473 554 365 562 q 518 688 518 618 q 484 775 518 750 q 372 801 450 801 q 315 798 356 801 m 115 927 l 363 934 q 600 880 513 934 q 686 716 686 826 q 576 522 686 622 q 743 291 743 445 q 657 79 743 158 q 400 0 572 0 l 134 0 l 134 784 l 115 927 m 315 429 l 315 134 l 401 134 q 518 175 476 134 q 559 286 559 215 q 366 429 559 429 l 315 429 "},"…":{"x_min":0,"x_max":0,"ha":1024,"o":"m 273 70 q 248 7 273 33 q 187 -18 223 -18 q 124 7 150 -18 q 98 70 98 33 q 124 131 98 106 q 187 156 150 156 q 247 131 222 156 q 273 70 273 105 m 600 70 q 575 7 600 33 q 513 -18 550 -18 q 451 7 477 -18 q 425 70 425 33 q 451 131 425 105 q 513 156 477 156 q 575 131 550 156 q 600 70 600 105 m 920 70 q 895 7 920 33 q 833 -18 869 -18 q 771 7 797 -18 q 745 70 745 33 q 771 131 745 106 q 833 156 797 156 q 895 131 869 156 q 920 70 920 106 "},"?":{"x_min":0,"x_max":0,"ha":610,"o":"m 281 263 l 141 312 q 134 361 134 340 q 160 459 134 411 q 222 546 186 508 q 295 622 258 584 q 357 700 331 659 q 383 780 383 741 q 342 870 383 838 q 243 901 301 901 q 158 886 208 901 l 109 869 l 63 1019 q 259 1055 169 1055 q 470 990 381 1055 q 558 795 558 925 q 529 684 558 738 q 457 588 500 630 q 372 506 415 545 q 301 427 330 468 q 272 348 272 386 q 281 263 272 291 m 330 84 q 301 11 330 41 q 226 -18 272 -18 q 151 11 180 -18 q 122 84 122 41 q 152 157 122 126 q 226 188 181 188 q 300 157 270 188 q 330 84 330 126 "},"H":{"x_min":0,"x_max":0,"ha":1063,"o":"m 929 927 l 929 119 l 944 0 l 748 0 l 748 391 l 315 391 l 315 119 l 330 0 l 134 0 l 134 784 l 115 927 l 315 927 l 315 543 l 748 543 l 748 784 l 729 927 l 929 927 "},"î":{"x_min":0,"x_max":0,"ha":394,"o":"m 283 722 l 283 119 l 298 0 l 111 0 l 111 561 l 91 701 l 283 722 m 126 1005 l 268 1005 l 426 820 l 318 779 l 195 908 l 76 779 l -31 820 l 126 1005 "},"c":{"x_min":0,"x_max":0,"ha":679,"o":"m 648 629 l 569 504 q 398 590 500 590 q 270 521 313 590 q 226 351 226 452 q 269 190 226 256 q 393 123 312 123 q 504 151 447 123 q 591 206 561 179 l 620 234 l 645 90 q 624 72 638 83 q 572 37 609 61 q 479 -2 536 13 q 359 -18 422 -18 q 188 34 261 -18 q 83 166 116 87 q 50 338 50 245 q 141 611 50 500 q 394 722 233 722 q 534 698 470 722 q 622 652 597 675 l 648 629 "},"¶":{"x_min":0,"x_max":0,"ha":906,"o":"m 59 513 q 186 808 59 688 q 495 927 313 927 l 600 927 l 600 -338 l 468 -338 l 468 101 q 177 230 295 112 q 59 513 59 348 m 822 927 l 822 -338 l 690 -338 l 690 927 l 822 927 "},"≠":{"x_min":0,"x_max":0,"ha":667},"•":{"x_min":0,"x_max":0,"ha":603,"o":"m 300 554 q 450 492 387 554 q 512 343 512 430 q 450 191 512 254 q 300 129 387 129 q 148 190 211 129 q 86 343 86 252 q 148 492 86 430 q 300 554 211 554 "},"¥":{"x_min":0,"x_max":0,"ha":764,"o":"m 122 495 l 248 495 l 86 808 l 88 807 l 0 927 l 220 927 l 384 611 l 402 556 l 423 611 l 587 927 l 763 927 l 522 495 l 679 495 l 654 379 l 479 379 l 479 269 l 665 269 l 640 152 l 479 152 l 479 119 l 494 0 l 298 0 l 298 152 l 122 152 l 122 269 l 298 269 l 298 379 l 122 379 l 122 495 "},"(":{"x_min":0,"x_max":0,"ha":472,"o":"m 268 571 q 237 329 237 456 q 268 79 237 201 q 340 -118 298 -41 q 416 -243 381 -195 q 466 -298 451 -291 l 340 -344 q 150 -71 229 -275 q 70 329 70 131 q 148 707 70 523 q 340 961 226 891 l 466 915 q 416 866 450 907 q 341 756 383 826 q 268 571 298 686 "},"U":{"x_min":0,"x_max":0,"ha":995,"o":"m 734 356 l 734 784 l 715 927 l 894 927 l 894 372 q 785 88 894 195 q 494 -18 676 -18 q 362 0 422 -18 q 265 47 302 19 q 202 113 229 75 q 161 186 175 152 q 140 255 148 219 q 131 308 133 291 q 130 336 130 325 l 130 784 l 111 927 l 311 927 l 311 347 q 370 181 311 244 q 519 118 429 118 q 672 186 611 118 q 734 356 734 254 "},"◊":{"x_min":0,"x_max":0,"ha":661},"Ñ":{"x_min":0,"x_max":0,"ha":1031,"o":"m 909 927 l 909 119 l 919 0 l 804 0 l 336 526 l 281 613 l 281 119 l 297 0 l 122 0 l 122 784 l 102 927 l 241 927 l 697 391 l 750 305 l 750 784 l 730 927 l 909 927 m 680 1154 l 755 1100 q 748 1084 754 1094 q 727 1052 743 1073 q 677 1016 711 1030 q 601 1001 644 1001 q 500 1025 552 1001 q 433 1048 447 1048 q 382 1036 405 1048 q 350 1013 359 1025 l 341 1001 l 269 1052 q 278 1070 272 1059 q 302 1102 284 1080 q 353 1139 320 1125 q 427 1154 386 1154 q 520 1129 468 1154 q 590 1105 572 1105 q 680 1154 657 1105 "},"F":{"x_min":0,"x_max":0,"ha":674,"o":"m 134 784 l 115 927 l 647 927 l 647 790 l 315 790 l 315 544 l 608 544 l 573 406 l 315 406 l 315 119 l 330 0 l 134 0 l 134 784 "},":":{"x_min":0,"x_max":0,"ha":372,"o":"m 94 448 q 122 517 94 488 q 191 545 151 545 q 256 517 229 545 q 284 448 284 488 q 256 382 284 409 q 191 355 229 355 q 122 382 151 355 q 94 448 94 409 m 94 75 q 122 143 94 115 q 191 172 151 172 q 256 143 229 172 q 284 75 284 115 q 256 9 284 36 q 191 -18 229 -18 q 122 9 151 -18 q 94 75 94 36 "},"Û":{"x_min":0,"x_max":0,"ha":995,"o":"m 734 356 l 734 784 l 715 927 l 894 927 l 894 372 q 785 88 894 195 q 494 -18 676 -18 q 362 0 422 -18 q 265 47 302 19 q 202 113 229 75 q 161 186 175 152 q 140 255 148 219 q 131 308 133 291 q 130 336 130 325 l 130 784 l 111 927 l 311 927 l 311 347 q 370 181 311 244 q 519 118 429 118 q 672 186 611 118 q 734 356 734 254 m 434 1215 l 576 1215 l 734 1030 l 626 988 l 504 1118 l 384 988 l 276 1030 l 434 1215 "},"*":{"x_min":0,"x_max":0,"ha":572,"o":"m -15 748 l 40 862 l 190 858 l 77 1033 l 220 1043 l 283 922 l 368 1077 l 461 987 l 376 858 l 581 862 l 526 748 l 376 752 l 488 577 l 345 568 l 283 687 l 198 534 l 108 625 l 190 752 l -15 748 "},"†":{"x_min":0,"x_max":0,"ha":690,"o":"m 401 -340 l 230 -340 l 230 572 l 51 572 l 51 701 l 230 701 l 230 900 l 401 920 l 401 701 l 633 701 l 579 572 l 401 572 l 401 -340 "},"°":{"x_min":0,"x_max":0,"ha":568,"o":"m 436 963 q 506 800 506 894 q 436 636 506 705 q 270 568 365 568 q 108 636 177 568 q 38 800 38 705 q 108 963 38 894 q 270 1032 177 1032 q 436 963 365 1032 m 381 801 q 348 876 381 844 q 272 908 315 908 q 195 876 227 908 q 163 801 163 844 q 195 722 163 758 q 272 687 227 687 q 351 722 320 687 q 381 801 381 757 "},"V":{"x_min":0,"x_max":0,"ha":864,"o":"m 863 927 l 493 -18 l 366 9 l 90 755 l 0 927 l 222 927 l 425 345 l 445 236 l 475 345 l 690 927 l 863 927 "},"å":{"x_min":0,"x_max":0,"ha":726,"o":"m 154 494 l 83 616 q 104 634 90 623 q 156 668 119 645 q 251 707 193 691 q 373 722 309 722 q 541 676 472 722 q 611 530 611 630 l 611 170 q 629 91 611 133 q 663 27 647 50 l 682 4 l 506 -15 q 459 70 472 23 q 250 -18 370 -18 q 104 36 162 -18 q 47 163 47 91 q 152 352 47 276 q 438 433 258 427 l 438 459 q 344 598 438 598 q 269 582 306 598 q 207 546 231 566 q 169 511 183 526 l 154 494 m 306 109 q 377 127 338 109 q 438 169 415 145 l 438 311 q 225 186 225 293 q 246 131 225 154 q 306 109 268 109 m 434 975 q 472 888 472 938 q 434 802 472 838 q 345 766 395 766 q 259 802 295 766 q 222 888 222 838 q 259 975 222 938 q 345 1011 295 1011 q 434 975 395 1011 m 406 890 q 388 932 406 913 q 347 950 370 950 q 304 932 322 950 q 287 890 287 913 q 304 845 287 866 q 347 825 322 825 q 391 845 375 825 q 406 890 406 865 "},"0":{"x_min":0,"x_max":0,"ha":708,"o":"m 362 837 q 672 411 672 837 q 590 100 672 218 q 331 -18 508 -18 q 118 85 200 -18 q 37 412 37 188 q 118 720 37 604 q 362 837 198 837 m 354 704 q 216 427 216 704 q 347 112 216 112 q 455 190 415 112 q 495 405 495 268 q 354 704 495 704 "},"”":{"x_min":0,"x_max":0,"ha":632,"o":"m 140 579 l 84 647 q 166 782 166 720 q 157 822 166 809 q 126 845 148 836 l 126 855 q 153 919 126 888 q 219 950 180 950 q 289 922 261 950 q 318 843 318 894 q 273 713 318 786 q 140 579 229 640 m 383 579 l 327 647 q 409 782 409 720 q 400 822 409 809 q 369 845 391 836 l 369 855 q 396 919 369 888 q 462 950 423 950 q 532 922 504 950 q 561 843 561 894 q 516 713 561 786 q 383 579 472 640 "},"¾":{"x_min":0,"x_max":0,"ha":1017,"o":"m 520 109 l 777 479 l 901 443 l 901 151 l 998 151 l 972 41 l 901 41 l 901 5 l 912 -81 l 752 -81 l 752 41 l 534 41 l 520 109 m 754 151 l 751 272 l 755 323 l 730 272 l 663 173 l 636 148 l 665 151 l 754 151 m 834 776 l 383 123 l 241 123 l 720 819 l 834 776 m 420 807 q 396 746 420 776 q 337 697 372 716 q 411 650 380 690 q 441 565 441 611 q 395 461 441 502 q 291 404 350 419 q 162 390 231 390 q 79 397 118 390 l 48 494 q 122 488 95 488 q 288 581 288 488 q 156 637 288 637 l 166 701 q 215 724 198 715 q 248 752 231 733 q 265 795 265 772 q 211 843 265 843 q 159 833 186 843 q 119 813 133 823 l 105 804 l 66 888 q 237 940 133 940 q 366 904 312 940 q 420 807 420 869 "},"@":{"x_min":0,"x_max":0,"ha":1267,"o":"m 868 563 l 868 243 q 882 97 868 112 q 1009 189 962 97 q 1057 391 1057 281 q 952 686 1057 568 q 659 805 847 805 q 341 656 476 805 q 205 318 205 506 q 259 100 205 205 q 420 -78 312 -5 q 663 -156 527 -151 l 590 -283 q 304 -170 426 -262 q 123 47 181 -79 q 65 318 65 175 q 106 538 65 430 q 222 733 147 645 q 416 874 297 820 q 679 927 534 927 q 1054 779 907 927 q 1201 411 1201 630 q 1178 259 1201 333 q 1111 120 1155 184 q 993 18 1068 56 q 826 -20 919 -20 q 763 -18 786 -20 q 718 70 734 13 q 701 47 712 61 q 652 10 690 33 q 569 -12 613 -12 q 400 76 461 -12 q 340 284 340 165 q 451 586 340 470 q 738 702 562 702 q 830 688 779 702 l 880 675 l 868 563 m 702 163 l 701 580 q 645 561 672 575 q 587 518 619 547 q 536 432 555 488 q 518 300 518 376 q 538 179 518 230 q 607 127 559 127 q 672 145 640 127 l 702 163 "},"ö":{"x_min":0,"x_max":0,"ha":782,"o":"m 734 366 q 635 93 734 204 q 368 -18 536 -18 q 133 90 219 -18 q 47 341 47 198 q 145 613 47 504 q 415 722 244 722 q 647 632 559 722 q 734 366 734 543 m 273 529 q 230 352 230 459 q 273 175 230 245 q 390 105 316 105 q 506 175 463 105 q 550 352 550 245 q 506 529 550 459 q 390 598 463 598 q 273 529 316 598 m 317 945 q 340 884 340 919 q 317 825 340 850 q 262 800 294 800 q 207 825 230 800 q 184 884 184 850 q 207 945 184 919 q 262 970 230 970 q 317 945 294 970 m 572 945 q 595 884 595 919 q 572 825 595 850 q 518 800 550 800 q 463 825 486 800 q 440 884 440 850 q 463 945 440 920 q 518 970 486 970 q 572 945 550 970 "},"i":{"x_min":0,"x_max":0,"ha":394,"o":"m 281 722 l 281 119 l 297 0 l 109 0 l 109 561 l 90 701 l 281 722 m 95 907 q 124 975 95 947 q 193 1004 152 1004 q 258 975 230 1004 q 286 907 286 947 q 258 841 286 868 q 193 813 230 813 q 124 841 152 813 q 95 907 95 868 "},"≤":{"x_min":0,"x_max":0,"ha":313},"Õ":{"x_min":0,"x_max":0,"ha":958,"o":"m 487 941 q 806 813 695 941 q 916 470 916 684 q 788 122 916 262 q 469 -18 659 -18 q 156 115 270 -18 q 43 454 43 248 q 170 801 43 661 q 487 941 298 941 m 302 710 q 234 462 234 612 q 302 214 234 312 q 480 116 370 116 q 657 214 590 116 q 725 462 725 312 q 657 710 725 612 q 480 808 590 808 q 302 710 370 808 m 650 1154 l 725 1100 q 718 1084 723 1094 q 696 1052 712 1073 q 647 1016 680 1030 q 570 1001 613 1001 q 469 1025 522 1001 q 402 1048 416 1048 q 352 1036 375 1048 q 319 1013 329 1025 l 311 1001 l 238 1052 q 247 1070 241 1059 q 272 1102 254 1080 q 322 1139 290 1125 q 397 1154 355 1154 q 489 1129 437 1154 q 559 1105 541 1105 q 650 1154 626 1105 "},"þ":{"x_min":0,"x_max":0,"ha":782,"o":"m 111 -333 l 111 888 l 91 1029 l 283 1050 l 283 648 q 452 722 362 722 q 650 627 569 722 q 730 366 730 533 q 627 95 730 208 q 363 -18 523 -18 q 283 -12 338 -18 l 283 -213 l 298 -333 l 111 -333 m 408 593 q 283 520 341 593 l 283 112 q 386 106 331 106 q 499 178 452 106 q 545 354 545 250 q 506 528 545 463 q 408 593 466 593 "},"]":{"x_min":0,"x_max":0,"ha":358,"o":"m 50 898 l 50 1019 l 329 1019 l 329 -95 l 50 -95 l 50 26 l 169 26 l 169 898 l 50 898 "},"m":{"x_min":0,"x_max":0,"ha":1253,"o":"m 1159 0 l 972 0 l 972 405 q 955 542 972 506 q 887 577 938 577 q 798 558 841 577 q 736 519 755 538 l 715 498 l 715 116 l 730 0 l 543 0 l 543 405 q 526 542 543 506 q 458 577 509 577 q 368 557 411 577 q 305 516 325 537 l 284 497 l 284 119 l 300 0 l 112 0 l 112 559 l 93 700 l 284 720 l 284 634 q 505 722 380 722 q 616 696 563 722 q 694 625 668 670 q 722 652 700 633 q 804 697 744 672 q 934 722 865 722 q 1082 675 1020 722 q 1144 544 1144 629 l 1144 116 l 1159 0 "},"ﬃ":{"x_min":0,"x_max":0,"ha":1333,"o":"m 1222 722 l 1222 119 l 1237 0 l 1050 0 l 1050 523 l 1044 572 l 761 572 l 761 158 l 776 0 l 588 0 l 588 572 l 291 572 l 291 158 l 306 0 l 119 0 l 119 572 l 34 572 l 34 701 l 119 701 l 119 770 q 150 900 119 843 q 229 992 181 958 q 329 1043 277 1026 q 429 1061 381 1061 q 688 983 594 1061 q 898 1061 783 1061 q 1019 1047 962 1061 q 1107 1016 1076 1033 q 1155 986 1137 1000 l 1172 972 l 1122 827 q 1030 888 1090 859 q 913 918 970 918 q 804 880 847 918 q 761 768 761 843 l 761 701 l 1030 701 l 1222 722 m 588 701 l 588 770 q 604 865 588 822 q 444 918 522 918 q 334 880 377 918 q 291 768 291 843 l 291 701 l 588 701 "},"8":{"x_min":0,"x_max":0,"ha":708,"o":"m 334 -18 q 238 -5 284 -18 q 148 31 191 6 q 79 104 105 56 q 52 215 52 152 q 98 356 52 297 q 231 483 144 416 q 86 701 86 604 q 161 877 86 813 q 370 941 236 941 q 554 888 480 941 q 627 748 627 834 q 589 618 627 670 q 476 506 551 565 q 616 379 566 437 q 665 259 665 322 q 571 58 665 134 q 334 -18 477 -18 m 334 412 q 222 237 222 331 q 255 157 222 191 q 347 123 288 123 q 446 153 402 123 q 490 229 490 183 q 465 291 490 256 q 413 347 440 325 q 334 412 387 370 m 376 579 q 461 719 461 641 q 434 786 461 757 q 355 816 406 816 q 280 794 308 816 q 252 729 252 772 q 376 579 252 670 "},"ž":{"x_min":0,"x_max":0,"ha":632,"o":"m 19 0 l 13 40 l 320 516 l 365 572 l 22 572 l 58 701 l 598 701 l 604 661 l 297 183 l 254 129 l 611 129 l 611 0 l 19 0 m 397 779 l 255 779 l 97 963 l 205 1005 l 327 876 l 447 1005 l 555 963 l 397 779 "},"R":{"x_min":0,"x_max":0,"ha":840,"o":"m 843 0 l 616 0 l 386 327 l 315 327 l 315 119 l 330 0 l 134 0 l 134 784 l 115 927 l 402 927 q 634 852 538 927 q 730 638 730 777 q 682 484 730 561 q 555 368 633 406 l 843 0 m 315 459 l 377 459 q 493 512 444 459 q 543 638 543 565 q 495 757 543 715 q 377 800 447 800 l 315 800 l 315 459 "},"á":{"x_min":0,"x_max":0,"ha":726,"o":"m 154 494 l 83 616 q 104 634 90 623 q 156 668 119 645 q 251 707 193 691 q 373 722 309 722 q 541 676 472 722 q 611 530 611 630 l 611 170 q 629 91 611 133 q 663 27 647 50 l 682 4 l 506 -15 q 459 70 472 23 q 250 -18 370 -18 q 104 36 162 -18 q 47 163 47 91 q 152 352 47 276 q 438 433 258 427 l 438 459 q 344 598 438 598 q 269 582 306 598 q 207 546 231 566 q 169 511 183 526 l 154 494 m 306 109 q 377 127 338 109 q 438 169 415 145 l 438 311 q 225 186 225 293 q 246 131 225 154 q 306 109 268 109 m 394 991 l 601 991 l 344 763 l 234 802 l 394 991 "},"×":{"x_min":0,"x_max":0,"ha":610,"o":"m 468 86 l 304 248 l 144 88 l 45 188 l 205 350 l 33 519 l 158 590 l 300 445 l 473 620 l 547 490 l 402 347 l 565 183 l 468 86 "},"o":{"x_min":0,"x_max":0,"ha":782,"o":"m 734 366 q 635 93 734 204 q 368 -18 536 -18 q 133 90 219 -18 q 47 341 47 198 q 145 613 47 504 q 415 722 244 722 q 647 632 559 722 q 734 366 734 543 m 273 529 q 230 352 230 459 q 273 175 230 245 q 390 105 316 105 q 506 175 463 105 q 550 352 550 245 q 506 529 550 459 q 390 598 463 598 q 273 529 316 598 "},"5":{"x_min":0,"x_max":0,"ha":708,"o":"m 613 812 l 586 662 l 294 662 l 287 520 q 528 434 427 519 q 629 216 629 348 q 562 13 629 97 q 400 -104 495 -69 q 194 -140 305 -140 q 106 -134 144 -140 l 65 -5 q 168 -15 119 -15 q 301 5 238 -15 q 408 77 363 26 q 452 202 452 129 q 373 340 452 281 q 198 398 294 398 q 129 394 162 398 l 148 812 l 613 812 "},"õ":{"x_min":0,"x_max":0,"ha":782,"o":"m 734 366 q 635 93 734 204 q 368 -18 536 -18 q 133 90 219 -18 q 47 341 47 198 q 145 613 47 504 q 415 722 244 722 q 647 632 559 722 q 734 366 734 543 m 273 529 q 230 352 230 459 q 273 175 230 245 q 390 105 316 105 q 506 175 463 105 q 550 352 550 245 q 506 529 550 459 q 390 598 463 598 q 273 529 316 598 m 562 944 l 637 890 q 630 874 636 884 q 609 842 625 863 q 559 806 593 820 q 483 791 526 791 q 381 815 434 791 q 315 838 329 838 q 264 827 287 838 q 233 802 241 815 l 223 791 l 151 843 q 160 860 154 850 q 184 893 166 870 q 235 929 202 915 q 309 944 268 944 q 402 920 350 944 q 472 895 454 895 q 562 944 538 895 "},"7":{"x_min":0,"x_max":0,"ha":708,"o":"m 290 -158 l 134 -136 l 484 662 l 87 662 l 43 812 l 669 812 l 695 776 l 290 -158 "},"K":{"x_min":0,"x_max":0,"ha":821,"o":"m 315 119 l 330 0 l 134 0 l 134 784 l 115 927 l 315 927 l 315 501 l 538 829 l 583 927 l 815 927 l 491 488 l 837 0 l 615 0 l 315 452 l 315 119 "},",":{"x_min":0,"x_max":0,"ha":389,"o":"m 126 -184 l 70 -116 q 152 18 152 -43 q 143 59 152 45 q 112 81 134 72 l 112 91 q 139 155 112 125 q 205 186 166 186 q 275 158 247 186 q 304 79 304 130 q 259 -50 304 22 q 126 -184 215 -123 "},"d":{"x_min":0,"x_max":0,"ha":781,"o":"m 666 1065 l 666 172 q 684 93 666 134 q 719 27 702 51 l 737 5 l 562 -13 q 515 68 531 15 q 427 8 483 33 q 325 -16 372 -16 q 127 77 206 -16 q 47 337 47 172 q 150 609 47 495 q 413 722 254 722 l 494 715 l 494 904 l 475 1044 l 666 1065 m 369 112 q 494 177 419 112 l 494 590 q 391 598 445 598 q 279 526 326 598 q 231 350 231 454 q 271 176 231 240 q 369 112 311 112 "},"¨":{"x_min":0,"x_max":0,"ha":547,"o":"m 203 945 q 226 884 226 919 q 203 825 226 850 q 148 800 180 800 q 93 825 116 800 q 70 884 70 850 q 93 945 70 919 q 148 970 116 970 q 203 945 180 970 m 459 945 q 481 884 481 919 q 459 825 481 850 q 404 800 436 800 q 349 825 372 800 q 326 884 326 850 q 349 945 326 920 q 404 970 372 970 q 459 945 436 970 "},"Ô":{"x_min":0,"x_max":0,"ha":958,"o":"m 487 941 q 806 813 695 941 q 916 470 916 684 q 788 122 916 262 q 469 -18 659 -18 q 156 115 270 -18 q 43 454 43 248 q 170 801 43 661 q 487 941 298 941 m 302 710 q 234 462 234 612 q 302 214 234 312 q 480 116 370 116 q 657 214 590 116 q 725 462 725 312 q 657 710 725 612 q 480 808 590 808 q 302 710 370 808 m 406 1215 l 548 1215 l 707 1030 l 598 988 l 476 1118 l 356 988 l 248 1030 l 406 1215 "},"E":{"x_min":0,"x_max":0,"ha":708,"o":"m 134 0 l 134 784 l 115 927 l 647 927 l 647 790 l 315 790 l 315 544 l 608 544 l 573 406 l 315 406 l 315 137 l 665 137 l 630 0 l 134 0 "},"Y":{"x_min":0,"x_max":0,"ha":764,"o":"m 479 415 l 479 119 l 494 0 l 298 0 l 298 401 l 86 809 l 0 927 l 220 927 l 384 611 l 402 556 l 420 611 l 583 927 l 763 927 l 479 415 "},"\"":{"x_min":0,"x_max":0,"ha":571,"o":"m 234 593 l 100 593 l 104 768 l 79 907 l 234 933 l 234 593 m 470 593 l 336 593 l 340 768 l 315 907 l 470 933 l 470 593 "},"‹":{"x_min":0,"x_max":0,"ha":519,"o":"m 470 556 l 258 341 l 470 129 l 408 4 l 34 343 l 408 682 l 470 556 "},"˙":{"x_min":0,"x_max":0,"ha":272,"o":"m 229 886 q 201 822 229 848 q 133 795 173 795 q 64 822 93 795 q 36 886 36 848 q 64 948 36 922 q 133 975 93 975 q 200 948 172 975 q 229 886 229 922 "},"ê":{"x_min":0,"x_max":0,"ha":693,"o":"m 380 722 q 644 358 634 722 l 611 325 l 226 325 q 276 179 231 236 q 400 123 320 123 q 512 147 454 123 q 602 197 570 172 l 633 222 l 658 80 q 622 52 645 69 q 522 9 598 36 q 366 -18 447 -18 q 134 86 219 -18 q 50 333 50 190 q 133 610 50 498 q 380 722 216 722 m 363 604 q 233 447 261 604 l 465 447 q 437 556 461 509 q 363 604 413 604 m 298 1005 l 440 1005 l 598 820 l 490 779 l 368 908 l 248 779 l 140 820 l 298 1005 "},"Ï":{"x_min":0,"x_max":0,"ha":457,"o":"m 316 927 l 316 119 l 331 0 l 136 0 l 136 784 l 116 927 l 316 927 m 156 1154 q 179 1094 179 1129 q 156 1034 179 1059 q 101 1009 133 1009 q 46 1034 69 1009 q 23 1094 23 1059 q 46 1154 23 1129 q 101 1180 69 1180 q 156 1154 133 1180 m 411 1154 q 434 1094 434 1129 q 411 1034 434 1059 q 356 1009 388 1009 q 302 1034 325 1009 q 279 1094 279 1059 q 302 1155 279 1130 q 356 1180 325 1180 q 411 1154 388 1180 "},"„":{"x_min":0,"x_max":0,"ha":632,"o":"m 126 -184 l 70 -116 q 152 18 152 -43 q 143 59 152 45 q 112 81 134 72 l 112 91 q 139 155 112 125 q 205 186 166 186 q 275 158 247 186 q 304 79 304 130 q 259 -50 304 22 q 126 -184 215 -123 m 369 -184 l 313 -116 q 395 18 395 -43 q 386 59 395 45 q 355 81 377 72 l 355 91 q 382 155 355 125 q 448 186 409 186 q 518 158 490 186 q 547 79 547 130 q 502 -50 547 22 q 369 -184 458 -123 "},"Â":{"x_min":0,"x_max":0,"ha":822,"o":"m -13 0 l 343 916 l 461 945 l 744 172 l 822 0 l 620 0 l 541 215 l 234 215 l 152 0 l -13 0 m 379 626 l 279 358 l 501 358 l 405 627 l 393 682 l 379 626 m 334 1215 l 476 1215 l 634 1030 l 526 988 l 404 1118 l 284 988 l 176 1030 l 334 1215 "},"Í":{"x_min":0,"x_max":0,"ha":457,"o":"m 316 927 l 316 119 l 331 0 l 136 0 l 136 784 l 116 927 l 316 927 m 277 1201 l 484 1201 l 227 973 l 118 1012 l 277 1201 "},"´":{"x_min":0,"x_max":0,"ha":483,"o":"m 252 1005 l 459 1005 l 202 777 l 93 816 l 252 1005 "},"ì":{"x_min":0,"x_max":0,"ha":394,"o":"m 283 722 l 283 119 l 298 0 l 111 0 l 111 561 l 91 701 l 283 722 m -47 1005 l 159 1005 l 319 816 l 209 777 l -47 1005 "},"±":{"x_min":0,"x_max":0,"ha":668,"o":"m 258 222 l 258 380 l 59 380 l 59 516 l 258 516 l 258 704 l 411 662 l 411 516 l 620 516 l 586 380 l 411 380 l 411 222 l 258 222 m 93 144 l 581 144 l 543 0 l 93 0 l 93 144 "},"Ú":{"x_min":0,"x_max":0,"ha":995,"o":"m 734 356 l 734 784 l 715 927 l 894 927 l 894 372 q 785 88 894 195 q 494 -18 676 -18 q 362 0 422 -18 q 265 47 302 19 q 202 113 229 75 q 161 186 175 152 q 140 255 148 219 q 131 308 133 291 q 130 336 130 325 l 130 784 l 111 927 l 311 927 l 311 347 q 370 181 311 244 q 519 118 429 118 q 672 186 611 118 q 734 356 734 254 m 554 1201 l 761 1201 l 504 973 l 394 1012 l 554 1201 "},"|":{"x_min":0,"x_max":0,"ha":329,"o":"m 241 1050 l 241 -352 l 87 -352 l 87 1050 l 241 1050 "},"§":{"x_min":0,"x_max":0,"ha":597,"o":"m 398 913 l 506 166 q 533 -15 533 -9 q 451 -185 533 -122 q 252 -248 369 -248 q 153 -231 198 -248 q 86 -195 108 -215 q 52 -159 63 -176 l 40 -143 l 48 -8 q 212 -113 125 -100 q 77 813 77 752 q 159 984 77 920 q 356 1048 241 1048 q 456 1032 411 1048 q 523 995 501 1015 q 558 959 545 976 l 569 943 l 561 808 q 398 913 483 900 m 213 813 l 345 -93 q 394 -13 394 -61 q 261 894 394 33 q 213 813 213 866 "},"Ý":{"x_min":0,"x_max":0,"ha":764,"o":"m 479 415 l 479 119 l 494 0 l 298 0 l 298 401 l 86 809 l 0 927 l 220 927 l 384 611 l 402 556 l 420 611 l 583 927 l 763 927 l 479 415 m 448 1201 l 655 1201 l 398 973 l 288 1012 l 448 1201 "},"b":{"x_min":0,"x_max":0,"ha":776,"o":"m 90 1034 l 281 1055 l 281 670 q 434 722 348 722 q 641 628 554 722 q 729 366 729 534 q 625 95 729 208 q 362 -18 522 -18 q 205 17 277 -18 q 109 102 133 52 l 109 894 l 90 1034 m 281 555 l 281 145 q 384 106 323 106 q 497 178 451 106 q 544 354 544 250 q 497 522 544 456 q 384 588 451 588 q 315 572 348 588 l 281 555 "},"q":{"x_min":0,"x_max":0,"ha":767,"o":"m 679 -340 l 494 -340 l 494 19 q 352 -18 425 -18 q 137 73 227 -18 q 47 338 47 165 q 150 609 47 497 q 413 722 254 722 q 566 708 466 722 l 666 694 l 666 -198 l 679 -340 m 494 140 l 494 588 q 391 597 444 597 q 278 525 325 597 q 231 351 231 454 q 278 175 231 247 q 391 104 325 104 q 494 140 451 104 "},"Ω":{"x_min":0,"x_max":0,"ha":511},"Ö":{"x_min":0,"x_max":0,"ha":958,"o":"m 487 941 q 806 813 695 941 q 916 470 916 684 q 788 122 916 262 q 469 -18 659 -18 q 156 115 270 -18 q 43 454 43 248 q 170 801 43 661 q 487 941 298 941 m 302 710 q 234 462 234 612 q 302 214 234 312 q 480 116 370 116 q 657 214 590 116 q 725 462 725 312 q 657 710 725 612 q 480 808 590 808 q 302 710 370 808 m 404 1154 q 427 1094 427 1129 q 404 1034 427 1059 q 350 1009 381 1009 q 295 1034 318 1009 q 272 1094 272 1059 q 295 1154 272 1129 q 350 1180 318 1180 q 404 1154 381 1180 m 660 1154 q 683 1094 683 1129 q 660 1034 683 1059 q 605 1009 637 1009 q 550 1034 573 1009 q 527 1094 527 1059 q 550 1155 527 1130 q 605 1180 573 1180 q 660 1154 637 1180 "},"ﬂ":{"x_min":0,"x_max":0,"ha":864,"o":"m 291 701 l 466 701 l 420 572 l 291 572 l 291 158 l 306 0 l 119 0 l 119 572 l 34 572 l 34 701 l 119 701 l 119 770 q 150 900 119 843 q 229 992 181 958 q 329 1043 277 1026 q 429 1061 381 1061 q 581 1032 475 1061 q 752 993 688 1004 l 752 119 l 768 0 l 580 0 l 580 879 q 444 918 505 918 q 334 880 377 918 q 291 768 291 843 l 291 701 "},"z":{"x_min":0,"x_max":0,"ha":632,"o":"m 19 0 l 13 40 l 320 516 l 365 572 l 22 572 l 58 701 l 598 701 l 604 661 l 297 183 l 254 129 l 611 129 l 611 0 l 19 0 "},"™":{"x_min":0,"x_max":0,"ha":1128,"o":"m 37 870 l 37 979 l 438 979 l 438 870 l 309 870 l 309 536 l 319 456 l 161 456 l 161 870 l 37 870 m 791 473 l 625 702 l 625 536 l 634 456 l 484 456 l 484 888 l 473 979 l 581 979 l 793 682 l 982 979 l 1088 979 l 1088 536 l 1098 456 l 934 456 l 934 695 l 791 473 "},"ã":{"x_min":0,"x_max":0,"ha":726,"o":"m 154 494 l 83 616 q 104 634 90 623 q 156 668 119 645 q 251 707 193 691 q 373 722 309 722 q 541 676 472 722 q 611 530 611 630 l 611 170 q 629 91 611 133 q 663 27 647 50 l 682 4 l 506 -15 q 459 70 472 23 q 250 -18 370 -18 q 104 36 162 -18 q 47 163 47 91 q 152 352 47 276 q 438 433 258 427 l 438 459 q 344 598 438 598 q 269 582 306 598 q 207 546 231 566 q 169 511 183 526 l 154 494 m 306 109 q 377 127 338 109 q 438 169 415 145 l 438 311 q 225 186 225 293 q 246 131 225 154 q 306 109 268 109 m 518 944 l 593 890 q 586 874 591 884 q 564 842 580 863 q 515 806 548 820 q 438 791 481 791 q 337 815 390 791 q 270 838 284 838 q 220 827 243 838 q 188 802 197 815 l 179 791 l 106 843 q 115 860 109 850 q 140 893 122 870 q 190 929 158 915 q 265 944 223 944 q 357 920 305 944 q 427 895 409 895 q 518 944 494 895 "},"æ":{"x_min":0,"x_max":0,"ha":1064,"o":"m 158 494 l 77 612 q 99 630 84 619 q 151 666 113 641 q 247 706 188 690 q 372 722 306 722 q 477 700 425 722 q 559 645 530 679 q 758 722 644 722 q 1022 358 1012 722 l 988 325 l 604 320 q 650 179 609 231 q 770 127 691 127 q 886 152 827 127 q 975 202 944 177 l 1004 227 l 1029 81 q 995 54 1018 70 q 896 9 972 37 q 737 -18 820 -18 q 506 87 591 -18 q 497 100 502 91 q 262 -18 358 -18 q 102 36 156 -18 q 47 168 47 90 q 152 345 47 273 q 441 423 256 418 l 441 459 q 343 598 441 598 q 268 582 305 598 q 209 546 231 566 q 172 511 186 526 l 158 494 m 305 109 q 388 132 337 109 q 462 179 438 155 q 441 311 441 261 q 222 191 222 293 q 243 134 222 158 q 305 109 265 109 m 741 604 q 611 436 640 604 l 843 440 q 815 554 838 504 q 741 604 791 604 "},"®":{"x_min":0,"x_max":0,"ha":1111,"o":"m 811 216 l 643 216 l 519 398 l 519 288 q 529 216 519 280 l 379 216 l 379 630 l 369 719 l 541 719 q 681 676 623 719 q 738 555 738 633 q 711 474 738 515 q 641 413 684 433 l 811 216 m 519 465 l 525 465 q 587 488 561 465 q 613 555 613 512 q 525 633 613 633 l 519 633 l 519 465 m 1041 472 q 905 114 1041 247 q 533 -18 769 -18 q 201 115 333 -18 q 69 447 69 248 q 209 798 69 669 q 590 927 350 927 q 914 798 787 927 q 1041 472 1041 669 m 913 454 q 815 720 913 619 q 561 822 716 822 q 304 725 408 822 q 200 463 200 627 q 298 190 200 291 q 563 90 397 90 q 811 190 709 90 q 913 454 913 291 "},"É":{"x_min":0,"x_max":0,"ha":708,"o":"m 134 0 l 134 784 l 115 927 l 647 927 l 647 790 l 315 790 l 315 544 l 608 544 l 573 406 l 315 406 l 315 137 l 665 137 l 630 0 l 134 0 m 436 1201 l 643 1201 l 386 973 l 276 1012 l 436 1201 "},"~":{"x_min":0,"x_max":0,"ha":817,"o":"m 709 483 l 772 359 q 672 292 732 318 q 551 266 613 266 q 396 305 491 266 q 248 344 301 344 q 104 280 161 344 l 47 402 q 261 491 150 491 q 422 452 330 491 q 556 413 515 413 q 709 483 630 413 "},"³":{"x_min":0,"x_max":0,"ha":496,"o":"m 420 807 q 396 746 420 776 q 337 697 372 716 q 411 650 380 690 q 441 565 441 611 q 395 461 441 502 q 291 404 350 419 q 162 390 231 390 q 79 397 118 390 l 48 494 q 122 488 95 488 q 288 581 288 488 q 156 637 288 637 l 166 701 q 215 724 198 715 q 248 752 231 733 q 265 795 265 772 q 211 843 265 843 q 159 833 186 843 q 119 813 133 823 l 105 804 l 66 888 q 237 940 133 940 q 366 904 312 940 q 420 807 420 869 "},"¡":{"x_min":0,"x_max":0,"ha":381,"o":"m 86 -150 l 125 612 l 252 633 l 281 6 l 301 -122 l 86 -150 m 81 829 q 111 902 81 872 q 186 932 140 932 q 261 902 231 932 q 290 829 290 872 q 260 756 290 787 q 186 725 230 725 q 111 756 141 725 q 81 829 81 787 "},"[":{"x_min":0,"x_max":0,"ha":358,"o":"m 300 1019 l 300 898 l 180 898 l 180 26 l 300 26 l 300 -95 l 20 -95 l 20 1019 l 300 1019 "},"L":{"x_min":0,"x_max":0,"ha":668,"o":"m 134 0 l 134 784 l 115 927 l 315 927 l 315 140 l 669 140 l 634 0 l 134 0 "}," ":{"x_min":0,"x_max":0,"ha":347},"∑":{"x_min":0,"x_max":0,"ha":658},"%":{"x_min":0,"x_max":0,"ha":1195,"o":"m 468 863 q 537 704 537 795 q 468 545 537 612 q 306 477 398 477 q 148 545 216 477 q 80 704 80 612 q 148 863 80 795 q 306 930 216 930 q 468 863 398 930 m 415 705 q 382 778 415 747 q 308 809 350 809 q 234 779 265 809 q 202 705 202 748 q 233 629 202 663 q 308 594 263 594 q 386 628 356 594 q 415 705 415 662 m 982 898 l 359 0 l 197 0 l 850 955 l 982 898 m 1044 367 q 1113 208 1113 300 q 1044 49 1113 116 q 883 -18 975 -18 q 725 49 793 -18 q 657 208 657 116 q 725 367 657 300 q 883 434 793 434 q 1044 367 975 434 m 991 209 q 959 282 991 251 q 884 313 926 313 q 810 283 841 313 q 779 209 779 252 q 809 133 779 168 q 884 98 840 98 q 962 132 933 98 q 991 209 991 166 "},"P":{"x_min":0,"x_max":0,"ha":772,"o":"m 115 927 l 402 927 q 634 852 538 927 q 730 638 730 777 q 622 420 730 512 q 355 327 515 327 l 315 327 l 315 119 l 330 0 l 134 0 l 134 784 l 115 927 m 315 466 l 377 466 q 493 516 444 466 q 543 638 543 566 q 495 753 543 713 q 377 793 448 793 l 315 793 l 315 466 "},"∏":{"x_min":0,"x_max":0,"ha":589},"À":{"x_min":0,"x_max":0,"ha":822,"o":"m -13 0 l 343 916 l 461 945 l 744 172 l 822 0 l 620 0 l 541 215 l 234 215 l 152 0 l -13 0 m 379 626 l 279 358 l 501 358 l 405 627 l 393 682 l 379 626 m 161 1215 l 368 1215 l 527 1026 l 418 987 l 161 1215 "},"_":{"x_min":0,"x_max":0,"ha":685,"o":"m 713 -90 l 668 -201 l 0 -201 l 0 -90 l 713 -90 "},"ñ":{"x_min":0,"x_max":0,"ha":824,"o":"m 730 0 l 543 0 l 543 405 q 526 542 543 506 q 458 577 509 577 q 368 558 411 577 q 305 519 325 538 l 284 498 l 284 119 l 300 0 l 112 0 l 112 559 l 93 700 l 284 720 l 284 636 q 505 722 379 722 q 653 675 591 722 q 715 544 715 629 l 715 116 l 730 0 m 597 944 l 672 890 q 665 874 670 884 q 643 842 659 863 q 594 806 627 820 q 518 791 561 791 q 416 815 469 791 q 350 838 363 838 q 299 827 322 838 q 266 802 276 815 l 258 791 l 186 843 q 195 860 188 850 q 219 893 201 870 q 270 929 237 915 q 344 944 302 944 q 436 920 384 944 q 506 895 488 895 q 597 944 573 895 "},"+":{"x_min":0,"x_max":0,"ha":668,"o":"m 258 83 l 258 283 l 59 283 l 59 419 l 258 419 l 258 633 l 411 591 l 411 419 l 620 419 l 586 283 l 411 283 l 411 83 l 258 83 "},"‚":{"x_min":0,"x_max":0,"ha":389,"o":"m 126 -184 l 70 -116 q 152 18 152 -43 q 143 59 152 45 q 112 81 134 72 l 112 91 q 139 155 112 125 q 205 186 166 186 q 275 158 247 186 q 304 79 304 130 q 259 -50 304 22 q 126 -184 215 -123 "},"½":{"x_min":0,"x_max":0,"ha":1095,"o":"m 1040 -81 l 670 -81 l 659 -16 q 728 53 683 9 q 818 164 773 97 q 863 277 863 231 q 813 337 863 337 q 715 295 768 337 l 658 395 q 838 462 732 462 q 968 420 915 462 q 1022 297 1022 377 q 857 33 1022 194 l 1051 33 l 1040 -81 m 857 776 l 405 123 l 263 123 l 743 819 l 857 776 m 58 397 l 58 495 l 162 495 l 162 779 l 86 755 l 48 850 l 313 934 l 313 495 l 419 495 l 405 397 l 58 397 "},"Æ":{"x_min":0,"x_max":0,"ha":1078,"o":"m 504 0 l 504 227 l 265 227 l 156 0 l -13 0 l 437 927 l 1016 927 l 1016 790 l 684 790 l 684 544 l 977 544 l 943 406 l 684 406 l 684 137 l 1034 137 l 1000 0 l 504 0 m 326 358 l 504 358 l 504 752 l 326 358 "},"Ë":{"x_min":0,"x_max":0,"ha":708,"o":"m 134 0 l 134 784 l 115 927 l 647 927 l 647 790 l 315 790 l 315 544 l 608 544 l 573 406 l 315 406 l 315 137 l 665 137 l 630 0 l 134 0 m 314 1154 q 337 1094 337 1129 q 314 1034 337 1059 q 259 1009 291 1009 q 204 1034 227 1009 q 181 1094 181 1059 q 204 1154 181 1129 q 259 1180 227 1180 q 314 1154 291 1180 m 570 1154 q 593 1094 593 1129 q 570 1034 593 1059 q 515 1009 547 1009 q 460 1034 483 1009 q 437 1094 437 1059 q 460 1155 437 1130 q 515 1180 483 1180 q 570 1154 547 1180 "},"'":{"x_min":0,"x_max":0,"ha":335,"o":"m 234 593 l 100 593 l 104 768 l 79 907 l 234 933 l 234 593 "},"Š":{"x_min":0,"x_max":0,"ha":681,"o":"m 61 76 l 75 231 q 110 200 87 219 q 201 148 133 180 q 334 116 269 116 q 428 150 391 116 q 465 231 465 184 q 424 311 465 275 q 325 377 383 347 q 210 443 268 408 q 111 537 152 479 q 70 670 70 595 q 148 865 70 786 q 352 944 226 944 q 611 875 500 944 l 576 736 q 547 757 566 744 q 468 791 527 769 q 348 812 409 812 q 271 782 306 812 q 236 707 236 752 q 277 627 236 663 q 377 561 318 591 q 494 496 436 531 q 593 401 552 461 q 634 262 634 341 q 554 61 634 141 q 344 -18 475 -18 q 193 5 263 -18 q 91 52 122 29 l 61 76 m 418 988 l 276 988 l 118 1173 l 226 1215 l 348 1086 l 468 1215 l 576 1173 l 418 988 "},"ª":{"x_min":0,"x_max":0,"ha":576,"o":"m 122 759 l 56 845 q 72 861 61 851 q 111 891 83 870 q 186 924 140 911 q 286 937 233 937 q 418 903 365 937 q 470 795 470 869 l 470 530 q 484 475 470 505 q 512 427 498 444 l 526 409 l 370 393 q 336 459 340 419 q 206 391 281 391 q 81 434 126 391 q 37 534 37 477 q 111 662 37 611 q 318 720 186 713 l 318 750 q 259 834 318 834 q 188 816 223 834 q 138 777 154 797 l 122 759 m 318 540 l 318 633 q 275 625 290 629 q 236 613 261 622 q 198 589 211 605 q 186 550 186 573 q 201 511 186 529 q 238 493 216 493 q 318 540 270 493 "},"Œ":{"x_min":0,"x_max":0,"ha":1175,"o":"m 43 456 q 163 805 43 683 q 452 927 284 927 l 1113 927 l 1113 790 l 782 790 l 782 544 l 1075 544 l 1040 406 l 782 406 l 782 137 l 1132 137 l 1097 0 l 494 0 q 166 127 290 0 q 43 456 43 254 m 233 448 q 302 214 233 308 q 477 120 372 120 l 601 120 l 601 812 l 477 812 q 303 703 373 812 q 233 448 233 594 "},"ﬀ":{"x_min":0,"x_max":0,"ha":939,"o":"m 429 1061 q 661 1002 563 1061 q 818 1061 720 1061 q 1001 1008 911 1061 l 943 868 q 832 912 887 912 q 761 809 761 912 l 761 701 l 936 701 l 890 572 l 761 572 l 761 158 l 776 0 l 588 0 l 588 572 l 291 572 l 291 158 l 306 0 l 119 0 l 119 572 l 34 572 l 34 701 l 119 701 l 119 770 q 150 900 119 843 q 229 992 181 958 q 329 1043 277 1026 q 429 1061 381 1061 m 291 768 l 291 701 l 588 701 l 588 784 q 595 870 588 826 q 444 918 513 918 q 334 880 377 918 q 291 768 291 843 "},"˛":{"x_min":0,"x_max":0,"ha":397,"o":"m 184 20 l 320 20 q 279 -20 308 11 q 218 -94 251 -51 q 187 -169 184 -137 q 244 -201 190 -201 l 311 -201 l 311 -318 q 247 -323 287 -323 q 111 -295 169 -323 q 52 -204 52 -266 q 92 -86 52 -150 q 184 20 131 -23 "},"ð":{"x_min":0,"x_max":0,"ha":775,"o":"m 472 957 l 645 1032 l 645 927 l 552 887 q 686 670 638 795 q 733 412 733 545 q 641 102 733 223 q 368 -18 550 -18 q 252 0 304 -18 q 167 47 200 19 q 110 115 134 76 q 74 187 86 154 q 56 256 62 220 q 48 309 50 293 q 47 337 47 326 q 143 604 47 494 q 375 715 240 715 q 461 697 416 715 l 506 680 q 406 825 466 765 l 205 737 l 168 823 l 319 890 q 194 933 262 920 l 243 1048 q 472 957 368 1030 m 273 525 q 230 350 230 456 q 273 174 230 243 q 390 105 316 105 q 547 433 547 105 q 537 543 547 501 q 465 579 508 565 q 390 594 422 594 q 273 525 316 594 "},"T":{"x_min":0,"x_max":0,"ha":772,"o":"m 0 787 l 0 927 l 772 927 l 772 787 l 472 787 l 472 119 l 487 0 l 291 0 l 291 787 l 0 787 "},"š":{"x_min":0,"x_max":0,"ha":593,"o":"m 47 63 l 63 209 q 97 182 76 198 q 177 139 119 166 q 284 112 236 112 q 356 130 326 112 q 386 181 386 148 q 351 236 386 211 q 267 281 316 261 q 168 328 218 302 q 83 397 118 354 q 48 497 48 440 q 126 668 48 615 q 325 720 204 720 q 429 709 379 720 q 501 686 479 697 l 523 675 l 491 536 q 468 553 483 543 q 402 581 454 563 q 295 598 351 598 q 233 579 259 598 q 206 533 206 561 q 241 478 206 502 q 326 433 276 454 q 426 386 376 412 q 511 312 476 359 q 545 200 545 265 q 475 38 545 95 q 283 -18 404 -18 q 180 -5 229 -18 q 104 22 131 6 q 62 51 77 38 l 47 63 m 369 779 l 227 779 l 69 963 l 177 1005 l 300 876 l 419 1005 l 527 963 l 369 779 "},"Þ":{"x_min":0,"x_max":0,"ha":772,"o":"m 115 1036 l 312 1050 l 312 843 l 402 843 q 634 768 538 843 q 730 554 730 693 q 622 335 730 427 q 355 243 515 243 l 315 243 l 315 119 l 330 0 l 134 0 l 134 893 l 115 1036 m 315 369 l 377 369 q 493 425 443 369 q 543 554 543 480 q 495 675 543 630 q 377 720 447 720 l 315 720 l 315 369 "},"j":{"x_min":0,"x_max":0,"ha":386,"o":"m 283 722 l 283 23 q 204 -236 283 -136 q 4 -338 125 -337 l -55 -195 q 111 38 111 -195 l 111 561 l 91 701 l 283 722 m 95 907 q 124 975 95 947 q 193 1004 152 1004 q 258 975 230 1004 q 286 907 286 947 q 258 841 286 868 q 193 813 230 813 q 124 841 152 813 q 95 907 95 868 "},"1":{"x_min":0,"x_max":0,"ha":569,"o":"m 47 0 l 47 133 l 218 133 l 218 640 l 81 598 l 31 722 l 390 840 l 390 133 l 561 133 l 541 0 l 47 0 "},"›":{"x_min":0,"x_max":0,"ha":519,"o":"m 48 129 l 261 344 l 48 556 l 111 682 l 484 343 l 111 4 l 48 129 "},"ı":{"x_min":0,"x_max":0,"ha":394,"o":"m 283 722 l 283 119 l 298 0 l 111 0 l 111 561 l 91 701 l 283 722 "},"ä":{"x_min":0,"x_max":0,"ha":726,"o":"m 154 494 l 83 616 q 104 634 90 623 q 156 668 119 645 q 251 707 193 691 q 373 722 309 722 q 541 676 472 722 q 611 530 611 630 l 611 170 q 629 91 611 133 q 663 27 647 50 l 682 4 l 506 -15 q 459 70 472 23 q 250 -18 370 -18 q 104 36 162 -18 q 47 163 47 91 q 152 352 47 276 q 438 433 258 427 l 438 459 q 344 598 438 598 q 269 582 306 598 q 207 546 231 566 q 169 511 183 526 l 154 494 m 306 109 q 377 127 338 109 q 438 169 415 145 l 438 311 q 225 186 225 293 q 246 131 225 154 q 306 109 268 109 m 272 945 q 295 884 295 919 q 272 825 295 850 q 218 800 250 800 q 163 825 186 800 q 140 884 140 850 q 163 945 140 919 q 218 970 186 970 q 272 945 250 970 m 528 945 q 551 884 551 919 q 528 825 551 850 q 473 800 505 800 q 418 825 441 800 q 395 884 395 850 q 418 945 395 920 q 473 970 441 970 q 528 945 505 970 "},"<":{"x_min":0,"x_max":0,"ha":526,"o":"m 476 556 l 263 341 l 476 129 l 413 4 l 40 343 l 413 682 l 476 556 "},"£":{"x_min":0,"x_max":0,"ha":776,"o":"m 737 -141 l 29 -141 q 61 -66 41 -113 q 112 105 80 -19 q 144 330 144 230 l 144 365 l 59 365 l 59 487 l 144 487 l 144 757 q 176 886 144 827 q 257 977 208 944 q 359 1029 306 1011 q 459 1047 412 1047 q 580 1033 523 1047 q 668 1002 637 1019 q 716 972 698 986 l 733 958 l 683 827 q 591 888 651 859 q 475 918 531 918 q 364 880 408 918 q 320 768 320 843 l 320 487 l 604 487 l 559 365 l 320 365 l 320 318 q 304 169 320 251 q 270 38 287 87 l 254 -11 l 772 -11 l 737 -141 "},"¹":{"x_min":0,"x_max":0,"ha":433,"o":"m 58 397 l 58 495 l 162 495 l 162 779 l 86 755 l 48 850 l 313 934 l 313 495 l 419 495 l 405 397 l 58 397 "},"t":{"x_min":0,"x_max":0,"ha":526,"o":"m 305 845 l 291 701 l 498 701 l 454 572 l 290 572 l 290 202 q 348 138 290 138 q 433 159 384 138 q 508 204 481 180 l 526 52 q 500 32 518 44 q 423 1 483 20 q 297 -18 363 -18 q 163 34 206 -18 q 119 206 119 87 l 119 572 l 34 572 l 34 701 l 119 701 l 119 825 l 305 845 "},"¬":{"x_min":0,"x_max":0,"ha":743},"ù":{"x_min":0,"x_max":0,"ha":822,"o":"m 779 6 l 598 -18 q 554 76 563 26 q 525 50 544 65 q 443 8 505 34 q 315 -18 380 -18 q 167 28 229 -18 q 105 159 105 75 l 105 559 l 86 700 l 277 720 l 277 298 q 293 163 277 201 q 358 125 308 125 q 452 146 408 125 q 516 188 497 168 l 536 211 l 536 559 l 516 700 l 708 720 l 708 173 q 726 94 708 136 q 761 30 744 52 l 779 6 m 162 1005 l 369 1005 l 529 816 l 419 777 l 162 1005 "},"W":{"x_min":0,"x_max":0,"ha":1336,"o":"m 1336 927 l 965 -18 l 838 9 l 676 441 l 493 -18 l 366 9 l 90 755 l 0 927 l 222 927 l 426 345 l 445 236 l 475 345 l 597 654 l 495 927 l 694 927 l 898 345 l 918 236 l 947 345 l 1162 927 l 1336 927 "},"ï":{"x_min":0,"x_max":0,"ha":394,"o":"m 283 722 l 283 119 l 298 0 l 111 0 l 111 561 l 91 701 l 283 722 m 124 945 q 147 884 147 919 q 124 825 147 850 q 69 800 101 800 q 14 825 37 800 q -8 884 -8 850 q 14 945 -8 919 q 69 970 37 970 q 124 945 101 970 m 379 945 q 402 884 402 919 q 379 825 402 850 q 325 800 356 800 q 270 825 293 800 q 247 884 247 850 q 270 945 247 920 q 325 970 293 970 q 379 945 356 970 "},">":{"x_min":0,"x_max":0,"ha":526,"o":"m 47 129 l 259 344 l 47 556 l 109 682 l 483 343 l 109 4 l 47 129 "},"v":{"x_min":0,"x_max":0,"ha":713,"o":"m 712 720 l 409 -18 l 259 8 l 68 566 l 0 695 l 194 720 l 336 273 l 351 180 l 373 273 l 527 694 l 712 720 "},"û":{"x_min":0,"x_max":0,"ha":822,"o":"m 779 6 l 598 -18 q 554 76 563 26 q 525 50 544 65 q 443 8 505 34 q 315 -18 380 -18 q 167 28 229 -18 q 105 159 105 75 l 105 559 l 86 700 l 277 720 l 277 298 q 293 163 277 201 q 358 125 308 125 q 452 146 408 125 q 516 188 497 168 l 536 211 l 536 559 l 516 700 l 708 720 l 708 173 q 726 94 708 136 q 761 30 744 52 l 779 6 m 336 1005 l 477 1005 l 636 820 l 527 779 l 405 908 l 286 779 l 177 820 l 336 1005 "},"Ò":{"x_min":0,"x_max":0,"ha":958,"o":"m 487 941 q 806 813 695 941 q 916 470 916 684 q 788 122 916 262 q 469 -18 659 -18 q 156 115 270 -18 q 43 454 43 248 q 170 801 43 661 q 487 941 298 941 m 302 710 q 234 462 234 612 q 302 214 234 312 q 480 116 370 116 q 657 214 590 116 q 725 462 725 312 q 657 710 725 612 q 480 808 590 808 q 302 710 370 808 m 233 1215 l 440 1215 l 600 1026 l 490 987 l 233 1215 "},"&":{"x_min":0,"x_max":0,"ha":1068,"o":"m 1027 76 l 904 -30 q 694 95 812 6 q 394 -18 587 -18 q 165 57 254 -18 q 76 243 76 133 q 123 397 76 325 q 263 547 170 470 q 148 818 148 715 q 231 992 148 922 q 437 1062 315 1062 q 618 1005 550 1062 q 686 868 686 948 q 624 713 686 790 q 448 545 562 637 q 672 306 548 420 q 720 565 720 405 q 715 697 720 629 l 1052 697 l 1025 573 l 862 573 q 838 366 862 462 q 782 215 815 269 q 1027 76 922 106 m 433 111 q 516 129 476 111 q 573 165 555 147 l 591 183 q 340 448 469 290 q 252 261 252 361 q 297 154 252 198 q 433 111 341 111 m 305 836 q 383 644 305 769 q 487 744 451 700 q 523 832 523 788 q 497 909 523 873 q 422 944 470 944 q 343 916 380 944 q 305 836 305 887 "},"˝":{"x_min":0,"x_max":0,"ha":826,"o":"m 226 1005 l 433 1005 l 176 777 l 66 816 l 226 1005 m 509 1005 l 716 1005 l 459 777 l 350 816 l 509 1005 "},"Ð":{"x_min":0,"x_max":0,"ha":949,"o":"m 33 544 l 134 544 l 134 784 l 115 927 l 490 927 q 642 900 570 927 q 772 819 713 873 q 865 675 830 765 q 900 469 900 584 q 775 132 900 265 q 448 0 651 0 l 134 0 l 134 400 l 33 400 l 33 544 m 315 798 l 315 544 l 493 544 l 454 400 l 315 400 l 315 134 l 465 134 q 640 227 570 134 q 709 461 709 320 q 640 701 709 604 q 465 798 570 798 l 315 798 "},"I":{"x_min":0,"x_max":0,"ha":457,"o":"m 316 927 l 316 119 l 331 0 l 136 0 l 136 784 l 116 927 l 316 927 "},"G":{"x_min":0,"x_max":0,"ha":911,"o":"m 826 829 l 752 695 q 509 807 643 807 q 313 703 393 807 q 234 458 234 600 q 320 210 234 302 q 522 118 406 118 q 616 127 568 118 l 665 136 l 665 331 l 640 451 l 840 451 l 841 43 q 497 -18 679 -18 q 179 104 312 -18 q 47 444 47 226 q 179 803 47 662 q 508 944 311 944 q 826 829 697 944 "},"`":{"x_min":0,"x_max":0,"ha":483,"o":"m 31 1005 l 238 1005 l 398 816 l 288 777 l 31 1005 "},"·":{"x_min":0,"x_max":0,"ha":372,"o":"m 279 340 q 250 267 279 297 q 175 237 220 237 q 100 267 129 237 q 70 340 70 297 q 100 413 70 381 q 175 444 130 444 q 249 413 219 444 q 279 340 279 381 "},"r":{"x_min":0,"x_max":0,"ha":589,"o":"m 588 670 l 536 518 q 443 555 495 555 q 335 495 386 555 q 284 358 284 436 l 284 119 l 300 0 l 112 0 l 112 558 l 93 698 l 284 719 l 284 593 q 298 614 288 601 q 332 656 308 627 q 394 703 356 684 q 473 722 431 722 q 588 670 538 722 "},"¿":{"x_min":0,"x_max":0,"ha":610,"o":"m 325 629 l 466 651 q 484 550 484 593 q 458 458 484 502 q 393 377 431 413 q 317 305 355 341 q 252 225 279 269 q 226 133 226 180 q 267 43 226 75 q 366 12 308 12 q 447 36 401 12 l 493 58 l 545 -91 q 350 -136 461 -136 q 207 -112 272 -136 q 97 -29 143 -88 q 51 118 51 30 q 80 241 51 184 q 151 337 109 298 q 234 411 193 376 q 305 485 276 445 q 334 565 334 525 q 325 629 334 601 m 279 829 q 308 902 279 872 q 383 932 337 932 q 458 902 429 932 q 487 829 487 872 q 457 756 487 787 q 383 725 427 725 q 309 756 338 725 q 279 829 279 787 "},"ý":{"x_min":0,"x_max":0,"ha":713,"o":"m 712 720 l 369 -122 q 94 -337 281 -337 q -5 -318 44 -337 l -29 -151 q 73 -175 27 -175 q 181 -134 136 -175 q 261 4 226 -94 l 68 563 l 0 693 l 191 718 l 336 273 l 351 180 l 375 273 l 530 694 l 712 720 m 412 991 l 619 991 l 362 763 l 252 802 l 412 991 "},"x":{"x_min":0,"x_max":0,"ha":714,"o":"m 0 0 l 259 350 l 111 577 l 9 695 l 209 720 l 340 505 l 356 468 l 376 505 l 509 695 l 713 720 l 440 363 l 680 0 l 483 0 l 359 205 l 340 241 l 322 204 l 183 0 l 0 0 "},"è":{"x_min":0,"x_max":0,"ha":693,"o":"m 380 722 q 644 358 634 722 l 611 325 l 226 325 q 276 179 231 236 q 400 123 320 123 q 512 147 454 123 q 602 197 570 172 l 633 222 l 658 80 q 622 52 645 69 q 522 9 598 36 q 366 -18 447 -18 q 134 86 219 -18 q 50 333 50 190 q 133 610 50 498 q 380 722 216 722 m 363 604 q 233 447 261 604 l 465 447 q 437 556 461 509 q 363 604 413 604 m 125 1005 l 331 1005 l 491 816 l 381 777 l 125 1005 "},"º":{"x_min":0,"x_max":0,"ha":628,"o":"m 45 655 q 121 856 45 779 q 325 933 197 933 q 502 868 434 933 q 569 675 569 804 q 494 472 569 555 q 290 390 419 390 q 173 417 223 390 q 100 478 123 444 q 63 556 77 512 q 47 620 50 600 q 45 655 45 641 m 208 665 q 234 541 208 590 q 306 493 261 493 q 379 541 352 493 q 406 665 406 590 q 379 784 406 738 q 306 830 352 830 q 234 784 261 830 q 208 665 208 738 "},"Ø":{"x_min":0,"x_max":0,"ha":958,"o":"m 487 941 q 537 938 504 941 l 563 1051 l 669 1051 l 638 919 q 845 758 775 876 q 916 470 916 640 q 788 122 916 262 q 469 -18 659 -18 q 418 -15 451 -18 l 391 -126 l 290 -126 l 320 5 q 115 170 188 50 q 43 454 43 291 q 170 801 43 661 q 487 941 298 941 m 725 462 q 692 644 725 563 q 602 768 659 725 l 450 119 q 480 116 469 116 q 657 214 590 116 q 725 462 725 312 m 234 462 q 266 281 234 361 q 355 158 298 201 l 506 805 q 480 808 487 808 q 302 710 370 808 q 234 462 234 612 "},"∞":{"x_min":0,"x_max":0,"ha":860},"μ":{"x_min":0,"x_max":0,"ha":721},"÷":{"x_min":0,"x_max":0,"ha":671,"o":"m 231 570 q 260 639 231 611 q 329 668 288 668 q 394 639 366 668 q 422 570 422 611 q 394 504 422 531 q 329 477 366 477 q 260 504 288 477 q 231 570 231 531 m 231 115 q 260 184 231 155 q 329 212 288 212 q 394 184 366 212 q 422 115 422 155 q 394 49 422 76 q 329 22 366 22 q 260 49 288 22 q 231 115 231 76 m 93 412 l 581 412 l 543 275 l 93 275 l 93 412 "},"h":{"x_min":0,"x_max":0,"ha":820,"o":"m 730 0 l 543 0 l 543 405 q 526 542 543 506 q 458 577 509 577 q 368 558 411 577 q 305 519 325 538 l 284 501 l 284 119 l 300 0 l 112 0 l 112 894 l 93 1034 l 284 1055 l 284 638 q 505 722 376 722 q 653 675 591 722 q 715 544 715 629 l 715 116 l 730 0 "},".":{"x_min":0,"x_max":0,"ha":389,"o":"m 298 84 q 269 11 298 41 q 194 -18 240 -18 q 119 11 148 -18 q 90 84 90 41 q 120 157 90 126 q 194 188 150 188 q 268 157 238 188 q 298 84 298 126 "},";":{"x_min":0,"x_max":0,"ha":372,"o":"m 105 -184 l 50 -116 q 131 18 131 -43 q 122 59 131 45 q 93 81 113 72 q 91 91 91 84 q 118 155 91 125 q 184 186 145 186 q 254 158 226 186 q 283 79 283 130 q 238 -50 283 22 q 105 -184 194 -123 m 94 448 q 122 517 94 488 q 191 545 151 545 q 256 517 229 545 q 284 448 284 488 q 256 382 284 409 q 191 355 229 355 q 122 382 151 355 q 94 448 94 409 "},"f":{"x_min":0,"x_max":0,"ha":469,"o":"m 34 572 l 34 701 l 119 701 l 119 784 q 184 993 119 926 q 348 1061 248 1061 q 531 1008 441 1061 l 473 868 q 362 912 418 912 q 291 809 291 912 l 291 701 l 466 701 l 420 572 l 291 572 l 291 158 l 306 0 l 119 0 l 119 572 l 34 572 "},"“":{"x_min":0,"x_max":0,"ha":632,"o":"m 262 950 l 318 882 q 236 747 236 808 q 245 706 236 719 q 276 683 254 693 l 276 673 q 249 609 276 640 q 183 579 222 579 q 113 606 141 579 q 84 686 84 634 q 129 816 84 743 q 262 950 173 888 m 505 950 l 561 882 q 479 747 479 808 q 488 706 479 719 q 519 683 497 693 l 519 673 q 492 609 519 640 q 426 579 465 579 q 356 606 384 579 q 327 686 327 634 q 372 816 327 743 q 505 950 416 888 "},"A":{"x_min":0,"x_max":0,"ha":822,"o":"m -13 0 l 343 916 l 461 945 l 744 172 l 822 0 l 620 0 l 541 215 l 234 215 l 152 0 l -13 0 m 379 626 l 279 358 l 501 358 l 405 627 l 393 682 l 379 626 "},"6":{"x_min":0,"x_max":0,"ha":708,"o":"m 662 858 l 604 722 q 427 804 529 804 q 297 740 356 804 q 229 559 238 676 q 406 605 306 605 q 598 537 522 605 q 675 330 675 469 q 591 81 675 180 q 358 -18 508 -18 q 126 100 205 -18 q 47 413 47 218 q 77 665 47 559 q 163 829 108 770 q 286 914 219 887 q 436 941 354 941 q 555 920 498 941 q 637 879 612 900 l 662 858 m 348 465 q 223 422 283 465 q 381 122 229 122 q 468 172 437 122 q 500 291 500 223 q 458 423 500 381 q 348 465 416 465 "},"‘":{"x_min":0,"x_max":0,"ha":389,"o":"m 262 950 l 318 882 q 236 747 236 808 q 245 706 236 719 q 276 683 254 693 l 276 673 q 249 609 276 640 q 183 579 222 579 q 113 606 141 579 q 84 686 84 634 q 129 816 84 743 q 262 950 173 888 "},"π":{"x_min":0,"x_max":0,"ha":589},"O":{"x_min":0,"x_max":0,"ha":958,"o":"m 487 941 q 806 813 695 941 q 916 470 916 684 q 788 122 916 262 q 469 -18 659 -18 q 156 115 270 -18 q 43 454 43 248 q 170 801 43 661 q 487 941 298 941 m 302 710 q 234 462 234 612 q 302 214 234 312 q 480 116 370 116 q 657 214 590 116 q 725 462 725 312 q 657 710 725 612 q 480 808 590 808 q 302 710 370 808 "},"n":{"x_min":0,"x_max":0,"ha":824,"o":"m 730 0 l 543 0 l 543 405 q 526 542 543 506 q 458 577 509 577 q 368 558 411 577 q 305 519 325 538 l 284 498 l 284 119 l 300 0 l 112 0 l 112 559 l 93 700 l 284 720 l 284 636 q 505 722 379 722 q 653 675 591 722 q 715 544 715 629 l 715 116 l 730 0 "},"3":{"x_min":0,"x_max":0,"ha":708,"o":"m 605 626 q 568 521 605 569 q 468 441 530 473 q 593 354 547 422 q 638 209 638 287 q 560 -4 638 81 q 364 -122 481 -91 q 116 -131 247 -152 l 75 -1 q 165 -11 116 -9 q 268 -1 215 -12 q 363 31 320 9 q 433 94 405 52 q 461 191 461 136 q 416 283 461 245 q 327 333 372 320 q 245 345 281 345 l 265 459 q 379 522 330 481 q 427 608 427 562 q 396 675 427 652 q 326 698 365 698 q 264 687 297 698 q 209 661 231 676 q 170 635 186 647 q 156 622 155 623 l 100 743 q 343 830 206 830 q 529 776 452 830 q 605 626 605 722 "},"9":{"x_min":0,"x_max":0,"ha":708,"o":"m 50 -73 l 108 62 q 284 -19 183 -19 q 413 53 354 -19 q 483 254 473 126 q 305 208 405 208 q 113 276 190 208 q 37 483 37 344 q 120 732 37 633 q 354 830 204 830 q 586 707 506 830 q 665 386 665 584 q 556 -26 665 104 q 276 -156 448 -156 q 156 -136 213 -156 q 75 -94 100 -115 l 50 -73 m 363 348 q 488 391 429 348 q 330 690 483 690 q 243 640 275 690 q 212 522 212 590 q 254 390 212 431 q 363 348 295 348 "},"l":{"x_min":0,"x_max":0,"ha":397,"o":"m 284 1055 l 284 119 l 300 0 l 112 0 l 112 894 l 93 1034 l 284 1055 "},"∂":{"x_min":0,"x_max":0,"ha":31,"o":"m 23 963 l 23 0 l 6 0 l 6 963 l 23 963 "},"4":{"x_min":0,"x_max":0,"ha":708,"o":"m 19 230 l 413 833 l 561 808 l 561 281 l 694 281 l 666 131 l 561 131 l 561 -11 l 577 -138 l 388 -138 l 388 131 l 37 131 l 19 230 m 391 281 l 391 498 l 402 605 l 352 502 l 243 323 l 212 281 l 391 281 "},"p":{"x_min":0,"x_max":0,"ha":783,"o":"m 112 -333 l 112 561 l 93 701 l 284 722 l 284 644 q 454 722 369 722 q 651 627 570 722 q 732 366 732 533 q 628 95 732 208 q 365 -18 525 -18 q 284 -12 340 -18 l 284 -213 l 300 -333 l 112 -333 m 409 579 q 343 564 375 579 q 298 536 312 550 l 284 520 l 284 112 q 387 106 333 106 q 500 178 454 106 q 547 354 547 250 q 508 520 547 462 q 409 579 469 579 "},"‡":{"x_min":0,"x_max":0,"ha":690,"o":"m 401 -340 l 230 -340 l 230 0 l 51 0 l 51 129 l 230 129 l 230 572 l 51 572 l 51 701 l 230 701 l 230 900 l 401 920 l 401 701 l 633 701 l 579 572 l 401 572 l 401 129 l 615 129 l 561 0 l 401 0 l 401 -340 "},"à":{"x_min":0,"x_max":0,"ha":726,"o":"m 154 494 l 83 616 q 104 634 90 623 q 156 668 119 645 q 251 707 193 691 q 373 722 309 722 q 541 676 472 722 q 611 530 611 630 l 611 170 q 629 91 611 133 q 663 27 647 50 l 682 4 l 506 -15 q 459 70 472 23 q 250 -18 370 -18 q 104 36 162 -18 q 47 163 47 91 q 152 352 47 276 q 438 433 258 427 l 438 459 q 344 598 438 598 q 269 582 306 598 q 207 546 231 566 q 169 511 183 526 l 154 494 m 306 109 q 377 127 338 109 q 438 169 415 145 l 438 311 q 225 186 225 293 q 246 131 225 154 q 306 109 268 109 m 113 1005 l 320 1005 l 480 816 l 370 777 l 113 1005 "},"Ü":{"x_min":0,"x_max":0,"ha":995,"o":"m 734 356 l 734 784 l 715 927 l 894 927 l 894 372 q 785 88 894 195 q 494 -18 676 -18 q 362 0 422 -18 q 265 47 302 19 q 202 113 229 75 q 161 186 175 152 q 140 255 148 219 q 131 308 133 291 q 130 336 130 325 l 130 784 l 111 927 l 311 927 l 311 347 q 370 181 311 244 q 519 118 429 118 q 672 186 611 118 q 734 356 734 254 m 432 1154 q 455 1094 455 1129 q 432 1034 455 1059 q 377 1009 409 1009 q 322 1034 345 1009 q 300 1094 300 1059 q 322 1154 300 1129 q 377 1180 345 1180 q 432 1154 409 1180 m 688 1154 q 711 1094 711 1129 q 688 1034 711 1059 q 633 1009 665 1009 q 578 1034 601 1009 q 555 1094 555 1059 q 578 1155 555 1130 q 633 1180 601 1180 q 688 1154 665 1180 "},"ó":{"x_min":0,"x_max":0,"ha":782,"o":"m 734 366 q 635 93 734 204 q 368 -18 536 -18 q 133 90 219 -18 q 47 341 47 198 q 145 613 47 504 q 415 722 244 722 q 647 632 559 722 q 734 366 734 543 m 273 529 q 230 352 230 459 q 273 175 230 245 q 390 105 316 105 q 506 175 463 105 q 550 352 550 245 q 506 529 550 459 q 390 598 463 598 q 273 529 316 598 m 438 991 l 645 991 l 388 763 l 279 802 l 438 991 "},"√":{"x_min":0,"x_max":0,"ha":313}}}
